<?xml version="1.0" encoding="UTF-8"?>
<svg version="1.1" xmlns="http://www.w3.org/2000/svg" width="225" height="225">
<path d="M0 0 C74.25 0 148.5 0 225 0 C225 74.25 225 148.5 225 225 C150.75 225 76.5 225 0 225 C0 150.75 0 76.5 0 0 Z " fill="#000000" transform="translate(0,0)"/>
<path d="M0 0 C2.97 0 5.94 0 9 0 C9 12.54 9 25.08 9 38 C14.3437303 33.32423599 19.59489229 28.62283772 24.75 23.75 C26.14807367 22.43581075 27.54651463 21.12201214 28.9453125 19.80859375 C29.62883789 19.16647949 30.31236328 18.52436523 31.01660156 17.86279297 C31.67112305 17.24807129 32.32564453 16.63334961 33 16 C33.59522461 15.44070801 34.19044922 14.88141602 34.80371094 14.30517578 C36.40652718 12.80294112 38.01475607 11.30676494 39.625 9.8125 C40.52476562 8.97332031 41.42453125 8.13414063 42.3515625 7.26953125 C45 5 45 5 51 1 C51 15.52 51 30.04 51 45 C56.61 45 62.22 45 68 45 C68 66.12 68 87.24 68 109 C62.39 109 56.78 109 51 109 C51 121.87 51 134.74 51 148 C45.709865 144.03239875 40.91188862 140.21532348 36.1875 135.6875 C31.18063328 130.96081307 26.08922304 126.47922216 20.6953125 122.1953125 C17.04991026 119.22615879 13.53829768 116.09601047 10 113 C9.67 124.88 9.34 136.76 9 149 C6.03 149 3.06 149 0 149 C-0.33 137.12 -0.66 125.24 -1 113 C-5.29 116.96 -9.58 120.92 -14 125 C-19.375 129.375 -19.375 129.375 -22.01953125 131.48828125 C-26.53856687 135.29659043 -30.79775938 139.37786812 -35.05029297 143.47998047 C-35.66404785 144.06537598 -36.27780273 144.65077148 -36.91015625 145.25390625 C-37.45808838 145.78314697 -38.00602051 146.3123877 -38.57055664 146.85766602 C-40 148 -40 148 -42 148 C-42 135.13 -42 122.26 -42 109 C-47.61 109 -53.22 109 -59 109 C-59 87.88 -59 66.76 -59 45 C-53.39 45 -47.78 45 -42 45 C-42 30.48 -42 15.96 -42 1 C-36.97574254 4.76819309 -33.00323732 7.85301386 -28.76245117 12.23144531 C-27.00712375 13.99285158 -25.18768553 15.61543489 -23.30078125 17.234375 C-18.24831188 21.62198454 -13.41014778 26.22485955 -8.56054688 30.83398438 C-7.88443359 31.47271484 -7.20832031 32.11144531 -6.51171875 32.76953125 C-5.90803467 33.34292236 -5.30435059 33.91631348 -4.68237305 34.50708008 C-2.86244519 36.19091179 -2.86244519 36.19091179 0 38 C0 25.46 0 12.92 0 0 Z " fill="#F5F5F2" transform="translate(108,38)"/>
<path d="M0 0 C74.25 0 148.5 0 225 0 C225 74.25 225 148.5 225 225 C150.75 225 76.5 225 0 225 C0 150.75 0 76.5 0 0 Z M13 24 C5.98872371 35.0456802 3.70153208 45.03193852 3.67773438 57.93334961 C3.66780457 59.22540314 3.65787476 60.51745667 3.64764404 61.84866333 C3.62152593 65.38020036 3.60853024 68.91166156 3.59962273 72.44327998 C3.59373648 74.65742853 3.58552208 76.87155695 3.57661438 79.08569527 C3.5492905 86.03541392 3.52994796 92.98508584 3.5222106 99.93485445 C3.51327345 107.91532519 3.47828079 115.89510667 3.42020941 123.87536806 C3.37672088 130.07020162 3.3567884 136.26484317 3.35412836 142.45982748 C3.35204909 146.14709769 3.34060302 149.83371903 3.30448914 153.52082634 C3.12560562 172.88802334 3.01105534 190.04737249 17 205 C17.49757813 205.60972656 17.99515625 206.21945313 18.5078125 206.84765625 C25.33290956 214.65021696 37.38548182 220.46714747 47.71684456 221.1901207 C51.07311052 221.27436162 54.42415934 221.29307062 57.78149414 221.29052734 C59.05725311 221.29724457 60.33301208 221.30396179 61.64743042 221.31088257 C65.13340132 221.32848141 68.61927389 221.33323556 72.10528493 221.33451414 C74.2899363 221.33594062 76.47456307 221.34021975 78.6592083 221.34550858 C86.30040941 221.36399387 93.94154095 221.37218172 101.58276367 221.37060547 C108.67243155 221.36940687 115.76179362 221.39045746 122.85138422 221.4220928 C128.96296063 221.44837861 135.07443799 221.45896753 141.18607038 221.45769465 C144.8250492 221.45718829 148.46375647 221.46268742 152.1026783 221.48405075 C156.17290705 221.50729447 160.24246651 221.49783774 164.31274414 221.48583984 C165.49506119 221.49707886 166.67737823 221.50831787 167.89552307 221.51989746 C182.81579317 221.40895569 195.85187416 217.03159293 206.75 206.75 C217.65753421 195.22687303 221.61868278 182.10425258 221.53344727 166.46728516 C221.54206284 165.17128891 221.55067841 163.87529266 221.55955505 162.5400238 C221.5818443 159.02117464 221.57915775 155.50277958 221.57023358 151.9838872 C221.56508176 149.02951916 221.57245006 146.07523336 221.57970566 143.12087381 C221.5966403 136.14235671 221.59320495 129.16405859 221.57641602 122.18554688 C221.55950667 115.02353607 221.57532707 107.86213534 221.6076389 100.70019114 C221.63446508 94.51629668 221.64157576 88.33259059 221.63312382 82.14864385 C221.62823159 78.47058715 221.63020588 74.79289685 221.65091133 71.11488724 C221.67293636 67.00671472 221.65372389 62.89967343 221.63110352 58.79150391 C221.64279572 57.59834061 221.65448792 56.40517731 221.66653442 55.17585754 C221.50055534 40.25141163 215.71548706 28.08022603 205.6875 17.25 C194.64408515 6.82010819 181.26571364 3.38238576 166.43554688 3.48242188 C165.13633804 3.4754126 163.83712921 3.46840332 162.49855042 3.46118164 C158.97155265 3.44312445 155.4450289 3.4499417 151.91802406 3.46269798 C148.204086 3.47291809 144.490185 3.46340757 140.77624512 3.45715332 C134.54265149 3.44990286 128.30924823 3.45939579 122.07568359 3.47851562 C114.89779828 3.5002795 107.72036766 3.49322626 100.54249334 3.47121 C94.3484453 3.45298132 88.15453309 3.45053392 81.96046686 3.46096468 C78.27471129 3.46715885 74.58916851 3.46814912 70.90342712 3.45481873 C66.79016774 3.44097772 62.67767602 3.46023089 58.56445312 3.48242188 C57.36409927 3.47432495 56.16374542 3.46622803 54.92701721 3.45788574 C38.07120518 3.62538428 23.54881653 10.80072705 13 24 Z " fill="#FBFBFB" transform="translate(0,0)"/>
<path d="M0 0 C0.29900308 5.77957616 0.51541616 11.55456433 0.65917969 17.34008789 C0.71914921 19.30280019 0.80076514 21.26498487 0.90527344 23.22583008 C1.7973725 40.40748317 1.7973725 40.40748317 -2.58398438 45.68481445 C-5.44475715 48.52505763 -8.64758688 50.76633565 -12 53 C-13.35372492 54.16420052 -14.69313319 55.34593386 -16 56.5625 C-19.45107422 59.5539174 -22.94042331 62.50009975 -26.4375 65.4375 C-27.23704102 66.11244507 -27.23704102 66.11244507 -28.05273438 66.80102539 C-31.88330618 70 -31.88330618 70 -33 70 C-33.2990937 64.3628506 -33.51545138 58.7304108 -33.65917969 53.0871582 C-33.71913537 51.17292785 -33.80074127 49.25923802 -33.90527344 47.34692383 C-34.79703509 30.60016448 -34.79703509 30.60016448 -30.45556641 25.38378906 C-27.57899533 22.53168632 -24.3438586 20.27990359 -21 18 C-19.26917629 16.48362663 -17.55646705 14.94592567 -15.875 13.375 C-15.07964844 12.66214844 -14.28429687 11.94929688 -13.46484375 11.21484375 C-11.70124172 9.63011736 -9.94415002 8.03813388 -8.19140625 6.44140625 C-7.28261719 5.61511719 -6.37382813 4.78882812 -5.4375 3.9375 C-4.61121094 3.18339844 -3.78492187 2.42929688 -2.93359375 1.65234375 C-1 0 -1 0 0 0 Z " fill="#010101" transform="translate(108,97)"/>
<path d="M0 0 C1.12549172 0.96467698 2.25097919 1.92935892 3.37646484 2.89404297 C4.31659927 3.69985306 4.31659927 3.69985306 5.27572632 4.52194214 C11.4262768 9.79423133 17.42759147 15.20380128 23.34423828 20.73681641 C24.13870361 21.47617432 24.13870361 21.47617432 24.94921875 22.23046875 C25.41674561 22.66770264 25.88427246 23.10493652 26.3659668 23.55541992 C28.07474535 25.15567142 28.07474535 25.15567142 30.66015625 26.58813477 C33.68843474 29.70962508 33.56842325 31.48763228 33.56648254 35.70428467 C33.5277729 37.01855438 33.5277729 37.01855438 33.48828125 38.359375 C33.48120651 39.26375305 33.47413177 40.1681311 33.46684265 41.09991455 C33.43888765 43.98412329 33.37614813 46.86637965 33.3125 49.75 C33.28741851 51.70700318 33.26460508 53.66403684 33.24414062 55.62109375 C33.18905739 60.414813 33.1027778 65.20707568 33 70 C31.73931558 69.06844561 30.48058617 68.13424522 29.22265625 67.19897461 C28.52148682 66.67903427 27.82031738 66.15909393 27.09790039 65.62339783 C23.87774243 63.13157435 20.94587729 60.36819675 18 57.5625 C16.78590788 56.42107499 15.57106878 55.28044397 14.35546875 54.140625 C13.77974121 53.59986328 13.20401367 53.05910156 12.61083984 52.50195312 C8.58258389 48.74599213 4.58573422 45.05715615 0 42 C-0.36076355 40.16500854 -0.36076355 40.16500854 -0.34057617 37.91748047 C-0.34034958 37.07675995 -0.34012299 36.23603943 -0.33988953 35.36984253 C-0.32440567 34.46146637 -0.30892181 33.55309021 -0.29296875 32.6171875 C-0.28872391 31.68778351 -0.28447906 30.75837952 -0.28010559 29.80081177 C-0.26328012 26.82524944 -0.22562103 23.85035844 -0.1875 20.875 C-0.17245816 18.86068685 -0.15876888 16.84636311 -0.14648438 14.83203125 C-0.11336394 9.88776121 -0.06155529 4.94399451 0 0 Z " fill="#010101" transform="translate(117,97)"/>
<path d="M0 0 C14.52 0 29.04 0 44 0 C37.2748538 7.8460039 37.2748538 7.8460039 33.375 11.25 C28.47250352 15.57486094 23.65985701 19.98467271 18.859375 24.421875 C16 27 16 27 14.33740234 28.16479492 C11.0211427 30.53784839 10.05913096 31.72300303 9.1953125 35.76953125 C9.14275309 37.11636613 9.11984076 38.46464984 9.125 39.8125 C9.104375 40.50537109 9.08375 41.19824219 9.0625 41.91210938 C9.01572906 43.60755588 9.00426688 45.30391387 9 47 C6.03 47 3.06 47 0 47 C0 31.49 0 15.98 0 0 Z " fill="#030303" transform="translate(57,91)"/>
<path d="M0 0 C14.52 0 29.04 0 44 0 C44 15.51 44 31.02 44 47 C41.03 47 38.06 47 35 47 C35.00902344 45.99839844 35.01804688 44.99679688 35.02734375 43.96484375 C35.14257537 35.24826222 35.14257537 35.24826222 30.9375 28 C29.65029896 26.96763876 28.3370403 25.96694337 27 25 C25.78266887 23.94782102 24.57464797 22.88479681 23.375 21.8125 C22.715 21.24402344 22.055 20.67554687 21.375 20.08984375 C17.76607285 16.91422529 14.25610524 13.63251871 10.74365234 10.35083008 C8.08930494 7.88213263 5.40924886 5.48921696 2.6015625 3.1953125 C1.74304688 2.47085938 0.88453125 1.74640625 0 1 C0 0.67 0 0.34 0 0 Z " fill="#030303" transform="translate(124,91)"/>
<path d="M0 0 C3.55713883 1.77856942 5.11389431 2.91523182 7.75 5.6875 C11.65374787 9.69245615 15.75311664 13.36564789 20 17 C21.50240017 18.28887412 23.00246518 19.58047606 24.5 20.875 C25.50546875 21.73738281 25.50546875 21.73738281 26.53125 22.6171875 C27.0159375 23.07351562 27.500625 23.52984375 28 24 C28 24.33 28 24.66 28 25 C18.76 25 9.52 25 0 25 C0 16.75 0 8.5 0 0 Z " fill="#131312" transform="translate(74,58)"/>
<path d="M0 0 C0 8.25 0 16.5 0 25 C-8.91 25 -17.82 25 -27 25 C-25.35 23.35 -23.7 21.7 -22 20 C-21.20980469 19.19820312 -20.41960937 18.39640625 -19.60546875 17.5703125 C-15.10810737 13.02209243 -10.56671327 8.6151405 -5.69140625 4.47265625 C-3.96391739 3.0073744 -3.96391739 3.0073744 -2.33984375 1.30859375 C-1 0 -1 0 0 0 Z " fill="#080808" transform="translate(150,58)"/>
</svg>
