<svg fill="#f6f5f4" width="256px" height="256px" viewBox="-3.2 -3.2 38.40 38.40" xmlns="http://www.w3.org/2000/svg" stroke="#f6f5f4" stroke-width="0.00032">
  <defs>
    <style>
      .mysql-container {
        animation: mysqlFloat 4s ease-in-out infinite;
        transform-origin: center;
      }
      .mysql-logo {
        animation: mysqlPulse 3s ease-in-out infinite;
        transform-origin: center;
      }
      .mysql-blue {
        animation: mysqlGlow 2.5s ease-in-out infinite alternate;
      }
      .mysql-text {
        animation: mysqlShimmer 2s ease-in-out infinite;
      }
      @keyframes mysqlFloat {
        0%, 100% { transform: translateY(0px) rotate(0deg); }
        25% { transform: translateY(-3px) rotate(1deg); }
        50% { transform: translateY(-5px) rotate(0deg); }
        75% { transform: translateY(-3px) rotate(-1deg); }
      }
      @keyframes mysqlPulse {
        0%, 100% { transform: scale(1); }
        50% { transform: scale(1.06); }
      }
      @keyframes mysqlGlow {
        0% { filter: drop-shadow(0 0 4px #1c71d8); }
        100% { filter: drop-shadow(0 0 12px #1c71d8) drop-shadow(0 0 20px #1c71d8); }
      }
      @keyframes mysqlShimmer {
        0%, 100% { opacity: 1; }
        50% { opacity: 0.85; }
      }
    </style>
  </defs>
  <g id="SVGRepo_bgCarrier" stroke-width="0" transform="translate(0,0), scale(1)">
    <path transform="translate(-3.2, -3.2), scale(1.2)" d="M16,30.420390967279673C18.880327430721856,30.106339914665796,20.631319515132606,27.303361842727703,22.998166406439317,25.632149718271798C25.410997065613515,23.92846881407751,28.741477948703043,23.222939714581436,29.986638800326332,20.544534430321413C31.275710939007826,17.77167370029145,30.594511354509326,14.469828022024505,29.517953709942798,11.607750586874898C28.47669032003439,8.839504532104463,26.715998345490377,6.225376400860091,24.08926098476158,4.866087430601324C21.63320717219608,3.595124102598099,18.754981353253026,4.852508434692921,16,4.612454577038687C12.845270724783862,4.337568893519932,9.473375297616116,1.636816506987543,6.817304975955,3.361104587703853C4.183679386959319,5.070821824909638,5.179576984277767,9.184570097274053,4.309763463580566,12.201611895695773C3.481508628483745,15.074502920922669,1.1743846467390924,17.68524983984247,1.847812357254444,20.598324509911972C2.5369200304525985,23.57922665634706,5.284213243454403,25.545068450639587,7.7976949568142455,27.289504367630393C10.262220193798312,28.99996293944885,13.017748924910807,30.745555071645374,16,30.420390967279673" fill="#1c71d8" strokewidth="0" class="mysql-blue"></path>
  </g>
  <g id="SVGRepo_tracerCarrier" stroke-linecap="round" stroke-linejoin="round" stroke="#CCCCCC" stroke-width="0.064"></g>
  <g id="SVGRepo_iconCarrier" class="mysql-container">
    <path d="M21.875 7.568c-0.156 0-0.26 0.021-0.365 0.047v0.016h0.016c0.073 0.135 0.193 0.24 0.286 0.365 0.073 0.141 0.135 0.286 0.203 0.427l0.021-0.021c0.125-0.089 0.188-0.229 0.188-0.443-0.052-0.063-0.063-0.13-0.109-0.188-0.052-0.089-0.167-0.135-0.24-0.203zM7.693 25.161h-1.234c-0.042-2.083-0.167-4.042-0.359-5.88h-0.010l-1.88 5.88h-0.943l-1.865-5.88h-0.016c-0.135 1.76-0.224 3.724-0.26 5.88h-1.125c0.073-2.625 0.255-5.083 0.547-7.375h1.531l1.781 5.417h0.010l1.797-5.417h1.458c0.323 2.688 0.516 5.146 0.573 7.375zM13.047 19.719c-0.5 2.729-1.167 4.714-1.984 5.948-0.646 0.953-1.349 1.432-2.115 1.432-0.203 0-0.453-0.063-0.755-0.188v-0.656c0.151 0.021 0.323 0.036 0.516 0.036 0.359 0 0.646-0.104 0.865-0.297 0.26-0.24 0.391-0.51 0.391-0.807 0-0.208-0.099-0.625-0.307-1.26l-1.349-4.208h1.214l0.969 3.146c0.219 0.719 0.313 1.214 0.271 1.5 0.536-1.417 0.906-2.969 1.115-4.646zM29.484 25.161h-3.51v-7.375h1.182v6.469h2.328zM25.057 25.339l-1.354-0.667c0.12-0.099 0.234-0.208 0.339-0.333 0.578-0.672 0.865-1.677 0.865-3 0-2.443-0.958-3.661-2.875-3.661-0.938 0-1.672 0.307-2.198 0.927-0.573 0.677-0.865 1.677-0.865 2.995 0 1.297 0.255 2.245 0.766 2.854 0.469 0.542 1.172 0.818 2.115 0.818 0.349 0 0.672-0.042 0.964-0.13l1.766 1.031 0.484-0.833zM20.667 23.682c-0.302-0.479-0.448-1.25-0.448-2.313 0-1.859 0.563-2.786 1.693-2.786 0.589 0 1.026 0.224 1.302 0.667 0.297 0.484 0.448 1.245 0.448 2.297 0 1.87-0.568 2.813-1.693 2.813-0.594 0-1.026-0.224-1.307-0.667zM18.458 23.12c0 0.625-0.229 1.141-0.693 1.536-0.458 0.401-1.068 0.604-1.844 0.604-0.724 0-1.417-0.229-2.099-0.688l0.318-0.635c0.583 0.292 1.109 0.438 1.589 0.438 0.443 0 0.792-0.099 1.042-0.292 0.25-0.198 0.401-0.474 0.401-0.823 0-0.438-0.307-0.813-0.865-1.125-0.516-0.286-1.552-0.875-1.552-0.875-0.563-0.411-0.839-0.849-0.839-1.573 0-0.599 0.208-1.078 0.625-1.443 0.422-0.375 0.958-0.557 1.625-0.557 0.682 0 1.307 0.182 1.87 0.547l-0.286 0.635c-0.479-0.203-0.953-0.307-1.417-0.307-0.38 0-0.672 0.094-0.875 0.276s-0.328 0.411-0.328 0.698c0 0.438 0.313 0.813 0.885 1.135 0.526 0.286 1.583 0.891 1.583 0.891 0.578 0.406 0.865 0.844 0.865 1.557zM30.964 15.313c-0.714-0.016-1.266 0.057-1.729 0.255-0.13 0.052-0.344 0.052-0.365 0.219 0.073 0.073 0.083 0.188 0.146 0.286 0.109 0.177 0.292 0.417 0.464 0.542 0.188 0.146 0.375 0.292 0.568 0.417 0.349 0.214 0.74 0.339 1.083 0.552 0.193 0.125 0.391 0.286 0.583 0.417 0.099 0.068 0.161 0.188 0.286 0.229v-0.026c-0.063-0.078-0.078-0.193-0.141-0.286-0.089-0.089-0.177-0.167-0.266-0.255-0.26-0.349-0.578-0.651-0.927-0.901-0.286-0.193-0.911-0.464-1.026-0.792l-0.016-0.021c0.193-0.016 0.422-0.089 0.609-0.141 0.302-0.078 0.583-0.063 0.896-0.141 0.141-0.036 0.281-0.078 0.427-0.125v-0.078c-0.161-0.161-0.281-0.38-0.448-0.531-0.453-0.391-0.953-0.776-1.469-1.094-0.281-0.182-0.635-0.297-0.932-0.448-0.104-0.052-0.286-0.078-0.344-0.167-0.161-0.198-0.255-0.453-0.37-0.688-0.255-0.49-0.505-1.031-0.729-1.552-0.161-0.349-0.255-0.693-0.453-1.016-0.917-1.516-1.917-2.432-3.448-3.333-0.328-0.188-0.724-0.266-1.141-0.365-0.224-0.010-0.443-0.026-0.667-0.036-0.146-0.063-0.286-0.229-0.411-0.313-0.51-0.323-1.823-1.016-2.193-0.099-0.24 0.583 0.354 1.151 0.563 1.443 0.151 0.208 0.344 0.438 0.453 0.667 0.063 0.156 0.078 0.318 0.141 0.479 0.141 0.391 0.276 0.828 0.464 1.193 0.099 0.188 0.203 0.385 0.328 0.552 0.073 0.099 0.198 0.141 0.224 0.302-0.125 0.182-0.135 0.448-0.203 0.667-0.323 1.010-0.198 2.255 0.255 3 0.146 0.224 0.484 0.714 0.938 0.526 0.401-0.161 0.313-0.667 0.427-1.115 0.026-0.109 0.010-0.177 0.063-0.25v0.021c0.13 0.25 0.255 0.49 0.37 0.74 0.271 0.438 0.755 0.891 1.156 1.193 0.214 0.161 0.38 0.438 0.646 0.536v-0.026h-0.021c-0.057-0.078-0.13-0.115-0.203-0.177-0.161-0.161-0.339-0.359-0.469-0.536-0.37-0.5-0.703-1.052-0.995-1.62-0.146-0.281-0.271-0.583-0.385-0.859-0.052-0.104-0.052-0.266-0.141-0.318-0.135 0.193-0.333 0.359-0.427 0.604-0.172 0.38-0.188 0.854-0.255 1.344-0.031 0.010-0.016 0-0.031 0.021-0.286-0.073-0.385-0.365-0.49-0.615-0.271-0.635-0.313-1.651-0.083-2.38 0.063-0.188 0.328-0.776 0.224-0.953-0.057-0.172-0.234-0.271-0.328-0.406-0.12-0.167-0.24-0.38-0.323-0.568-0.214-0.5-0.318-1.052-0.552-1.552-0.104-0.229-0.292-0.469-0.443-0.682-0.172-0.24-0.359-0.411-0.49-0.693-0.047-0.099-0.109-0.26-0.036-0.365 0.016-0.073 0.052-0.099 0.125-0.12 0.115-0.099 0.448 0.026 0.563 0.083 0.328 0.13 0.604 0.255 0.88 0.443 0.125 0.089 0.26 0.255 0.422 0.302h0.188c0.286 0.063 0.604 0.016 0.87 0.099 0.474 0.151 0.901 0.37 1.286 0.609 1.167 0.745 2.125 1.797 2.776 3.052 0.109 0.203 0.156 0.391 0.255 0.604 0.182 0.443 0.417 0.885 0.604 1.307s0.365 0.849 0.635 1.198c0.135 0.188 0.667 0.286 0.911 0.38 0.177 0.083 0.453 0.156 0.609 0.25 0.307 0.188 0.609 0.401 0.896 0.609 0.146 0.099 0.589 0.323 0.615 0.5z" class="mysql-text"></path>
  </g>
</svg>
