<?xml version="1.0" encoding="UTF-8"?>
<svg version="1.1" xmlns="http://www.w3.org/2000/svg" width="636" height="432">
<path d="M0 0 C209.88 0 419.76 0 636 0 C636 142.56 636 285.12 636 432 C426.12 432 216.24 432 0 432 C0 289.44 0 146.88 0 0 Z " fill="#F9F9F9" transform="translate(0,0)"/>
<path d="M0 0 C1.04800781 0.92619141 1.04800781 0.92619141 2.1171875 1.87109375 C2.1171875 2.53109375 2.1171875 3.19109375 2.1171875 3.87109375 C3.3546875 3.8246875 4.5921875 3.77828125 5.8671875 3.73046875 C16.17066463 3.47089477 26.00605397 4.02148574 36.1796875 5.74609375 C37.20771484 5.91979492 38.23574219 6.09349609 39.29492188 6.27246094 C43.60961625 7.05314644 47.22824125 7.8054998 51.1171875 9.87109375 C52.44003317 10.20713922 53.77524487 10.49702107 55.1171875 10.74609375 C69.5900591 13.85246619 82.42683636 20.50944017 95.1875 27.8046875 C97.0897151 28.85591164 99.02119835 29.76933975 100.9921875 30.68359375 C105.4427755 32.87804209 109.30091051 35.77684319 113.265625 38.7421875 C115.10515331 40.11553398 116.96359798 41.46406614 118.84375 42.78125 C126.16283994 47.91726844 132.67583168 53.70352208 139.1171875 59.87109375 C140.06980469 60.77085938 141.02242188 61.670625 142.00390625 62.59765625 C156.01856777 76.16275401 168.47938842 92.71663089 169.6796875 112.80859375 C169.46389079 119.72308 167.15898289 125.29192833 163.1171875 130.87109375 C160.32921534 133.39070495 157.46181066 135.18205905 154.1171875 136.87109375 C153.2096875 137.3815625 152.3021875 137.89203125 151.3671875 138.41796875 C147.46591091 140.16228953 143.81615071 140.89387899 139.6171875 141.55859375 C138.90304687 141.68814453 138.18890625 141.81769531 137.453125 141.95117188 C125.77955367 143.87304033 114.07630184 142.95461841 102.4296875 141.30859375 C100.5573645 141.04405396 100.5573645 141.04405396 98.6472168 140.77416992 C70.46060484 136.53383194 43.02180869 127.51105191 17.29833984 115.32519531 C8.19549491 111.10529342 2.24567815 111.38156012 -7.2265625 114.48828125 C-19.6164538 119.17420168 -30.46150074 125.75110052 -40.8828125 133.87109375 C-41.71425781 134.51691406 -42.54570312 135.16273438 -43.40234375 135.828125 C-61.22121266 150.65117707 -70.27253646 171.78600386 -72.6015625 194.44921875 C-74.87768194 226.05226173 -69.60140854 256.60602794 -48.328125 281.21484375 C-40.75581909 289.44035176 -33.35762182 296.80584511 -23.8828125 302.87109375 C-22.9134375 303.57234375 -21.9440625 304.27359375 -20.9453125 304.99609375 C-16.46436428 307.73953143 -11.69641362 309.78120287 -6.8828125 311.87109375 C-7.5015625 311.28714844 -7.5015625 311.28714844 -8.1328125 310.69140625 C-15.47048245 303.58303849 -21.46998017 295.84355615 -26.7578125 287.12109375 C-27.13921387 286.49525391 -27.52061523 285.86941406 -27.91357422 285.22460938 C-31.61829355 278.95738979 -33.15990178 273.16858442 -34.0078125 265.99609375 C-34.09417969 265.30773437 -34.18054688 264.619375 -34.26953125 263.91015625 C-34.47940816 262.231141 -34.68188337 260.55120327 -34.8828125 258.87109375 C-29.87444176 263.04687089 -25.29074953 267.44053349 -20.7578125 272.12109375 C-14.22497782 278.75566063 -7.45594729 284.45461283 0.1171875 289.87109375 C0.95507812 290.48082031 1.79296875 291.09054687 2.65625 291.71875 C5.11720267 293.47829108 7.60630498 295.183573 10.1171875 296.87109375 C11.72013672 297.95197266 11.72013672 297.95197266 13.35546875 299.0546875 C37.89338928 315.36600195 62.16323844 321.95246478 91.4296875 322.12109375 C92.12164215 322.12672333 92.8135968 322.13235291 93.52651978 322.13815308 C101.91118192 322.18700011 109.91847982 321.76617479 118.1171875 319.87109375 C116.70179688 319.70673828 116.70179688 319.70673828 115.2578125 319.5390625 C111.20115698 319.03808998 107.15912512 318.47783719 103.1171875 317.87109375 C102.11558594 317.72285156 101.11398437 317.57460938 100.08203125 317.421875 C86.40536816 314.70962536 71.83225034 305.80014476 62.1171875 295.87109375 C62.1171875 295.21109375 62.1171875 294.55109375 62.1171875 293.87109375 C63.38691406 293.773125 64.65664063 293.67515625 65.96484375 293.57421875 C76.78539052 292.66405957 86.7233031 291.12294634 97.1171875 287.87109375 C98.11621094 287.58492188 99.11523438 287.29875 100.14453125 287.00390625 C108.97616816 284.32477881 116.99856452 280.18934819 125.1171875 275.87109375 C125.80425781 275.50822266 126.49132812 275.14535156 127.19921875 274.77148438 C140.37708346 267.76066181 151.80533929 259.16106056 163.109375 249.44921875 C164.6547811 248.12458495 166.20358692 246.8025164 167.79785156 245.53710938 C171.25783766 242.80849374 171.25783766 242.80849374 173.1171875 238.87109375 C172.2509375 239.71671875 171.3846875 240.56234375 170.4921875 241.43359375 C153.26764224 256.26779395 131.72393778 258.43839095 110.1171875 257.87109375 C110.1171875 257.21109375 110.1171875 256.55109375 110.1171875 255.87109375 C111.51419305 254.91211429 112.91736763 253.96104619 114.34814453 253.05322266 C117.45738915 250.9755298 120.23314396 248.5056268 123.0546875 246.05859375 C123.6736792 245.52306885 124.2926709 244.98754395 124.93041992 244.43579102 C137.46583794 233.52083331 149.156513 220.49423405 157.0703125 205.77734375 C157.8950445 204.27559294 158.77065589 202.80178184 159.6640625 201.33984375 C163.16914086 195.57042273 166.21989304 189.73285435 168.9296875 183.55859375 C169.36438354 182.57258179 169.36438354 182.57258179 169.80786133 181.56665039 C171.5918937 177.4042585 172.92363095 173.24746777 174.1171875 168.87109375 C174.42342041 167.97720947 174.72965332 167.0833252 175.04516602 166.16235352 C179.63018417 152.08568994 180.75180383 138.45885337 180.8671875 123.74609375 C180.89544341 121.90101498 180.92538363 120.05596121 180.95703125 118.2109375 C181.0297344 113.76436984 181.07999557 109.31809429 181.1171875 104.87109375 C180.4571875 104.87109375 179.7971875 104.87109375 179.1171875 104.87109375 C178.42078077 102.74899599 177.73530393 100.62330848 177.0546875 98.49609375 C176.67183594 97.31273438 176.28898437 96.129375 175.89453125 94.91015625 C175.1171875 91.87109375 175.1171875 91.87109375 176.1171875 89.87109375 C192.97960851 108.52738933 197.13139227 130.54509291 196.28320312 155.00537109 C195.00120128 177.13498521 186.87426479 196.92674154 174.1171875 214.87109375 C192.0687633 200.35705374 203.92459342 179.74804733 213.1171875 158.87109375 C213.7771875 159.20109375 214.4371875 159.53109375 215.1171875 159.87109375 C219.23607092 175.73543829 216.33800975 194.33444803 212.1171875 209.87109375 C211.86710937 210.86238281 211.61703125 211.85367188 211.359375 212.875 C202.85988106 244.0886588 179.0221181 272.28151 151.3605957 288.27294922 C148.62508489 289.82868668 145.87587929 291.35683373 143.1171875 292.87109375 C163.49570877 292.54762516 183.56617677 278.28050989 199.78515625 267.09765625 C203.12186247 264.81616473 206.58600022 262.83635427 210.1171875 260.87109375 C198.90409971 300.11690101 164.89985195 334.37481767 130.1171875 353.87109375 C124.87536315 356.73804502 119.54472811 359.3747547 114.1171875 361.87109375 C113.45187012 362.17934082 112.78655273 362.48758789 112.10107422 362.80517578 C98.06855316 369.15459462 83.19557163 372.0584811 68.1171875 374.87109375 C67.18148926 375.05518799 66.24579102 375.23928223 65.28173828 375.42895508 C61.30888899 375.98402606 57.41326964 376.07100171 53.40625 376.109375 C52.56887299 376.1190329 51.73149597 376.1286908 50.8687439 376.13864136 C48.1598467 376.16345286 45.45118608 376.17603623 42.7421875 376.18359375 C41.82211914 376.18654449 40.90205078 376.18949524 39.95410156 376.1925354 C22.91786585 376.20498553 6.47542252 375.23976827 -9.74414062 369.57885742 C-12.36043846 368.71303009 -15.02548674 368.11009394 -17.703125 367.46582031 C-55.56138569 357.13621424 -91.36795256 333.4819249 -116.8828125 303.87109375 C-118.12998047 302.43443359 -118.12998047 302.43443359 -119.40234375 300.96875 C-124.03631227 295.46640578 -128.13843763 289.72582974 -132.05078125 283.69140625 C-133.14930825 282.00028366 -134.27008179 280.32286871 -135.43359375 278.67578125 C-140.07363868 272.09717308 -143.49109975 264.93285828 -146.98706055 257.70483398 C-147.81623112 256.00739594 -148.67635926 254.32517483 -149.5390625 252.64453125 C-150.67200857 250.30618326 -151.4882737 248.17025401 -152.1953125 245.68359375 C-155.01726955 237.04316857 -159.09176997 230.33457652 -165.7265625 224.171875 C-168.45788821 221.2574713 -170.55651996 218.10930884 -172.6953125 214.74609375 C-173.06825439 214.15981201 -173.44119629 213.57353027 -173.82543945 212.96948242 C-178.21857496 205.90720089 -181.56599498 200.29877664 -179.8828125 191.87109375 C-177.58111653 186.88715473 -174.84335983 182.08009754 -171.1875 177.9609375 C-168.07387757 172.97354827 -169.10298812 165.5498149 -169.8828125 159.87109375 C-171.23639048 154.10417883 -173.26655244 148.54031709 -175.19482422 142.94628906 C-177.87345125 134.86668305 -179.10222182 126.19387868 -176.8828125 117.87109375 C-173.11071161 110.94031613 -167.6944623 105.15211465 -161.8828125 99.87109375 C-161.18671875 99.22914062 -160.490625 98.5871875 -159.7734375 97.92578125 C-154.3324913 93.02098668 -154.3324913 93.02098668 -150.8828125 91.87109375 C-149.7802952 89.70487507 -149.7802952 89.70487507 -148.8828125 86.87109375 C-148.37878906 85.70320313 -147.87476563 84.5353125 -147.35546875 83.33203125 C-145.51230053 78.42754751 -145.4090529 73.75108117 -145.3203125 68.55859375 C-144.57343679 47.32334992 -144.57343679 47.32334992 -136.8828125 38.87109375 C-136.45226562 38.31550781 -136.02171875 37.75992188 -135.578125 37.1875 C-129.34378212 29.79113463 -119.52764226 28.81723867 -110.4453125 27.99609375 C-91.47730297 26.20279307 -80.6422189 14.45303989 -68.9375 0.5625 C-50.45696318 -21.35723987 -20.67667554 -15.26936066 0 0 Z " fill="#BD138E" transform="translate(327.8828125,19.12890625)"/>
<path d="M0 0 C1.70318295 1.6293322 3.38178816 3.28624798 5 5 C4.36312256 5.05945801 3.72624512 5.11891602 3.07006836 5.18017578 C-43.49401668 9.70209265 -84.94966784 28.20123789 -116.30078125 63.59765625 C-146.14775154 100.16743926 -167.18591772 148.620482 -162.74511719 196.76318359 C-162.42396604 199.78429125 -162.06642045 202.79810657 -161.6875 205.8125 C-161.56995361 206.75496582 -161.45240723 207.69743164 -161.33129883 208.66845703 C-160.5286075 214.52682144 -159.25302036 220.0451672 -157.49926758 225.6940918 C-157 228 -157 228 -158 231 C-166.02638096 223.82748935 -175.09534921 212.30869404 -177.5390625 201.6484375 C-177.85644575 193.2522079 -173.80447666 186.2866108 -168.3046875 180.08984375 C-165.19106507 175.10245452 -166.22017562 167.67872115 -167 162 C-168.35357798 156.23308508 -170.38373994 150.66922334 -172.31201172 145.07519531 C-174.99063875 136.9955893 -176.21940932 128.32278493 -174 120 C-170.22789911 113.06922238 -164.8116498 107.2810209 -159 102 C-158.30390625 101.35804687 -157.6078125 100.71609375 -156.890625 100.0546875 C-151.4496788 95.14989293 -151.4496788 95.14989293 -148 94 C-146.8974827 91.83378132 -146.8974827 91.83378132 -146 89 C-145.49597656 87.83210938 -144.99195313 86.66421875 -144.47265625 85.4609375 C-142.62948803 80.55645376 -142.5262404 75.87998742 -142.4375 70.6875 C-141.69062429 49.45225617 -141.69062429 49.45225617 -134 41 C-133.56945312 40.44441406 -133.13890625 39.88882813 -132.6953125 39.31640625 C-126.46096962 31.92004088 -116.64482976 30.94614492 -107.5625 30.125 C-88.59449047 28.33169932 -77.7594064 16.58194614 -66.0546875 2.69140625 C-48.99640622 -17.54139823 -19.92577342 -14.42900834 0 0 Z " fill="#ED1191" transform="translate(325,17)"/>
<path d="M0 0 C1 3 1 3 0.3203125 4.875 C-3.42131794 11.52678744 -8.04057486 17.21824283 -13 23 C-13.68191406 23.81726563 -14.36382812 24.63453125 -15.06640625 25.4765625 C-18.57477628 29.62215213 -18.57477628 29.62215213 -20 31 C-20.66 31 -21.32 31 -22 31 C-22.309375 31.8353125 -22.309375 31.8353125 -22.625 32.6875 C-24.13564012 35.22812201 -25.93858175 36.76507497 -28.26953125 38.55859375 C-30.16895074 40.09639248 -30.16895074 40.09639248 -32.3984375 42.3984375 C-43.62630425 53.62630425 -57.21377282 61.56610257 -71.125 69 C-72.17228271 69.56074219 -72.17228271 69.56074219 -73.24072266 70.1328125 C-77.08797103 72.14444564 -80.83504423 73.72373448 -85 75 C-86.36318359 75.495 -86.36318359 75.495 -87.75390625 76 C-94.14238797 78.27461936 -100.2607224 79.68114135 -106.9921875 80.5078125 C-110.00962836 80.91319901 -110.00962836 80.91319901 -112.81030273 81.97753906 C-118.14586219 83.68785847 -123.63248411 84.04724582 -129.1875 84.625 C-130.43821289 84.75543701 -131.68892578 84.88587402 -132.97753906 85.02026367 C-148.64503279 86.56345745 -163.426343 86.44994713 -179 84 C-180.18400391 83.81743652 -181.36800781 83.63487305 -182.58789062 83.44677734 C-186.72681777 82.80761526 -190.86372574 82.15609164 -195 81.5 C-195.68066528 81.3924942 -196.36133057 81.2849884 -197.06262207 81.17422485 C-204.12601596 80.05261345 -211.1010052 78.90074347 -218 77 C-218 76.34 -218 75.68 -218 75 C-220.90624297 74.26010787 -223.82150775 73.58349094 -226.75 72.9375 C-227.94882812 72.67259766 -227.94882812 72.67259766 -229.171875 72.40234375 C-229.77515625 72.26957031 -230.3784375 72.13679688 -231 72 C-231 71.34 -231 70.68 -231 70 C-232.65 70 -234.3 70 -236 70 C-236 69.34 -236 68.68 -236 68 C-236.99 67.62875 -236.99 67.62875 -238 67.25 C-242.49209979 65.37829175 -246.78260205 63.12915468 -251.1171875 60.921875 C-254.69449651 59.11297157 -258.24065649 57.40975382 -262 56 C-262 55.34 -262 54.68 -262 54 C-262.99 54 -263.98 54 -265 54 C-265.33 53.34 -265.66 52.68 -266 52 C-267.64363134 51.27840576 -269.31050386 50.60648579 -271 50 C-271 49.34 -271 48.68 -271 48 C-271.99 48 -272.98 48 -274 48 C-274 47.34 -274 46.68 -274 46 C-274.99 46 -275.98 46 -277 46 C-277 45.34 -277 44.68 -277 44 C-277.66 44 -278.32 44 -279 44 C-279 43.34 -279 42.68 -279 42 C-280.134375 41.731875 -281.26875 41.46375 -282.4375 41.1875 C-283.613125 40.795625 -284.78875 40.40375 -286 40 C-286.33 39.01 -286.66 38.02 -287 37 C-290.00007271 35.29144978 -290.00007271 35.29144978 -293 34 C-293 33.01 -293 32.02 -293 31 C-293.59039062 30.72414063 -294.18078125 30.44828125 -294.7890625 30.1640625 C-300.9918885 26.89826365 -306.72132106 21.20040493 -310 15 C-309.67 14.01 -309.34 13.02 -309 12 C-308.6282666 12.4125 -308.2565332 12.825 -307.87353516 13.25 C-300.69858095 21.17451029 -293.65018034 28.65562483 -285 35 C-284.07960938 35.71285156 -283.15921875 36.42570312 -282.2109375 37.16015625 C-261.35014405 53.20480345 -238.96520888 64.7105038 -214 73 C-213.33162109 73.22574707 -212.66324219 73.45149414 -211.97460938 73.68408203 C-207.03256942 75.33183284 -202.05593612 76.74520381 -197 78 C-196.19965332 78.19899902 -195.39930664 78.39799805 -194.57470703 78.60302734 C-149.43423324 89.20031988 -98.60045609 81.38853748 -59.04296875 57.28662109 C-53.49023703 53.78962107 -48.21115702 49.98424273 -43 46 C-42.09378906 45.31808594 -41.18757813 44.63617188 -40.25390625 43.93359375 C-24.35437435 31.48329166 -11.62600294 16.37552456 0 0 Z " fill="#DCD5DA" transform="translate(522,312)"/>
<path d="M0 0 C0.66 0 1.32 0 2 0 C5.35489139 10.32427887 6.9187155 19.56586089 2.23828125 29.71484375 C-1.99853411 37.53357241 -6.59457903 40.11411897 -14.9765625 43.15234375 C-18 44 -18 44 -22 44 C-22.33 44.99 -22.66 45.98 -23 47 C-25.08145687 47.34485676 -27.16533222 47.67511671 -29.25 48 C-30.41015625 48.185625 -31.5703125 48.37125 -32.765625 48.5625 C-43.02793705 49.81818339 -53.07180052 48.71286816 -63.25 47.25 C-64.52399658 47.07025635 -65.79799316 46.8905127 -67.1105957 46.70532227 C-76.27646099 45.36353445 -85.11575075 43.62390205 -94 41 C-94.99 40.72027344 -95.98 40.44054687 -97 40.15234375 C-100.19283639 39.22883439 -103.30274824 38.2889925 -106.375 37.015625 C-109.31771074 35.8770762 -112.24647625 35.11623651 -115.3125 34.375 C-116.38113281 34.11460937 -117.44976562 33.85421875 -118.55078125 33.5859375 C-119.35902344 33.39257812 -120.16726563 33.19921875 -121 33 C-121 32.34 -121 31.68 -121 31 C-123.97851562 30.70703125 -123.97851562 30.70703125 -126.95703125 30.4140625 C-129 30 -129 30 -132 28 C-133.65549531 27.61500109 -135.3222433 27.27206865 -137 27 C-137 26.34 -137 25.68 -137 25 C-138.65 25 -140.3 25 -142 25 C-142.495 24.01 -142.495 24.01 -143 23 C-144.97945531 22.27419972 -146.96053646 21.55220814 -148.953125 20.86328125 C-151 20 -151 20 -153.5 17.8125 C-157.10970616 15.19546303 -159.61446291 15.70267545 -164 16 C-164.33 16.66 -164.66 17.32 -165 18 C-166.9809326 18.63672834 -168.96234667 19.27197602 -170.9453125 19.90234375 C-181.26096179 23.60911798 -191.01191646 28.39398193 -199.60546875 35.23828125 C-202 37 -202 37 -205.08984375 38.5078125 C-207.93486008 39.96659939 -209.3718804 41.12723531 -211.375 43.5625 C-211.96152344 44.27277344 -212.54804688 44.98304688 -213.15234375 45.71484375 C-213.76207031 46.46894531 -214.37179687 47.22304687 -215 48 C-215.96099609 49.11568359 -215.96099609 49.11568359 -216.94140625 50.25390625 C-222.61305743 56.99107312 -226.82266069 64.28969819 -231 72 C-231.66 72 -232.32 72 -233 72 C-231.34529391 56.99584069 -216.63136408 42.54293956 -205.375 33.5 C-200.17061516 29.4382466 -194.95575051 25.87843829 -189 23 C-188.09121094 22.51144531 -187.18242187 22.02289063 -186.24609375 21.51953125 C-177.24930649 16.76894606 -167.38928472 12.06463031 -157 13 C-154.04866575 13.97380695 -151.29595514 15.27513435 -148.5 16.625 C-146.89284913 17.36788342 -145.28476202 18.10874449 -143.67578125 18.84765625 C-142.88252441 19.2152002 -142.08926758 19.58274414 -141.27197266 19.96142578 C-105.25626974 36.42508366 -57.48738925 51.77444321 -18 41 C-10.0825972 37.84753298 -3.69225019 33.61557277 0.3125 25.9375 C3.78525964 17.48758687 2.28587239 8.57202145 0 0 Z " fill="#D8D2D8" transform="translate(494,117)"/>
<path d="M0 0 C1 3 1 3 0.3203125 4.875 C-3.42131794 11.52678744 -8.04057486 17.21824283 -13 23 C-13.68191406 23.81726563 -14.36382812 24.63453125 -15.06640625 25.4765625 C-18.57477628 29.62215213 -18.57477628 29.62215213 -20 31 C-20.66 31 -21.32 31 -22 31 C-22.20625 31.556875 -22.4125 32.11375 -22.625 32.6875 C-24.13564012 35.22812201 -25.93858175 36.76507497 -28.26953125 38.55859375 C-30.16895074 40.09639248 -30.16895074 40.09639248 -32.3984375 42.3984375 C-43.41790126 53.41790126 -56.7397605 61.28486195 -70.375 68.625 C-71.32971191 69.13945679 -71.32971191 69.13945679 -72.30371094 69.66430664 C-76.74511795 72 -76.74511795 72 -79 72 C-79 70 -79 70 -76.890625 67.56640625 C-73.91548439 64.92496384 -71.37033221 63.54605993 -67.75 61.9375 C-58.75982862 57.70896437 -50.92196618 51.94453883 -43 46 C-42.02289063 45.27039063 -41.04578125 44.54078125 -40.0390625 43.7890625 C-24.22891903 31.39732843 -11.56337731 16.28731475 0 0 Z M-79 72 C-82.47704761 73.84180245 -86.07434577 75.22825139 -89.75 76.625 C-90.92046875 77.07101562 -92.0909375 77.51703125 -93.296875 77.9765625 C-94.18890625 78.31429688 -95.0809375 78.65203125 -96 79 C-96 78.01 -96 77.02 -96 76 C-84.47835991 71.40774487 -84.47835991 71.40774487 -79 72 Z " fill="#E0DFE1" transform="translate(522,312)"/>
<path d="M0 0 C-1.32 0.66 -2.64 1.32 -4 2 C-4 2.66 -4 3.32 -4 4 C-4.845625 4.17015625 -5.69125 4.3403125 -6.5625 4.515625 C-13.94753504 5.9881686 -13.94753504 5.9881686 -20.8125 8.9375 C-44.05650247 21.39134181 -78.55911531 19.98298759 -104 16 C-104.75764648 15.8875293 -105.51529297 15.77505859 -106.29589844 15.65917969 C-114.78248451 14.39714333 -122.96424434 13.12501609 -131 10 C-131 9.34 -131 8.68 -131 8 C-129.72125 8.28617187 -128.4425 8.57234375 -127.125 8.8671875 C-125.88169922 9.14127441 -125.88169922 9.14127441 -124.61328125 9.42089844 C-122.96318932 9.78655782 -121.3145171 10.15874039 -119.66796875 10.54003906 C-82.39627966 18.93080489 -43.81184089 15.02407546 -8.44140625 1.25390625 C-7.63574219 0.94839844 -6.83007812 0.64289063 -6 0.328125 C-5.278125 0.0487207 -4.55625 -0.23068359 -3.8125 -0.51855469 C-2 -1 -2 -1 0 0 Z " fill="#DAD8DA" transform="translate(447,380)"/>
<path d="M0 0 C0.33 0 0.66 0 1 0 C1.08507812 1.16015625 1.17015625 2.3203125 1.2578125 3.515625 C1.85285155 8.19769697 3.51937321 11.70454339 5.875 15.75 C6.27066162 16.44536865 6.66632324 17.1407373 7.07397461 17.85717773 C9.79119974 22.44318724 12.83139609 26.27226504 16.5625 30.0625 C24.14226774 37.86551476 29.0506983 47.12496838 32.10546875 57.5703125 C34.11812266 63.03699691 37.19490118 68.10589109 40.00976562 73.19580078 C40.89411676 74.80708157 41.75349686 76.43200981 42.609375 78.05859375 C47.51963372 87.36432601 53.50912226 95.57603793 60.203125 103.67578125 C62.01693633 106.02190678 63.52597786 108.42956016 65 111 C63.0625 110.625 63.0625 110.625 61 110 C60.67 109.34 60.34 108.68 60 108 C59.01 107.67 58.02 107.34 57 107 C56.67 105.35 56.34 103.7 56 102 C55.34 102 54.68 102 54 102 C51 97.61538462 51 97.61538462 51 95 C50.34 95 49.68 95 49 95 C48.67 93.02 48.34 91.04 48 89 C47.01 89 46.02 89 45 89 C44.42121094 87.98292969 43.84242188 86.96585937 43.24609375 85.91796875 C41.86087296 83.49185174 40.45685013 81.08107249 39.03515625 78.67578125 C34.70956428 71.30086109 31.12476455 63.97498832 28 56 C27.0867105 53.83190764 26.17008608 51.66521681 25.25 49.5 C23.91226142 46.35038764 22.72630218 43.34730571 22 40 C21.34 40 20.68 40 20 40 C18.66666667 38 17.33333333 36 16 34 C15.34 34 14.68 34 14 34 C12.78125 32.28515625 12.78125 32.28515625 11.5 30.0625 C9.81545121 26.94567974 9.81545121 26.94567974 7 25 C5.93621342 22.92735061 4.94706075 20.81601904 4 18.6875 C2.0182039 14.19800729 2.0182039 14.19800729 -0.17578125 9.8125 C-1.49824496 6.90433335 -1.17744541 4.13486893 -1 1 C-0.67 0.67 -0.34 0.34 0 0 Z " fill="#E0D1DA" transform="translate(147,213)"/>
<path d="M0 0 C2.77996657 1.37779045 3.8634814 2.55082014 6 5 C6.58908505 9.19723095 6.47850614 12.47791232 4 16 C-0.01642001 18.67761334 -3.28252507 18.92370138 -8 18 C-10.81688332 16.27434175 -11.35016436 15.07969319 -13 12 C-13.35920789 9.07021062 -13.05501118 6.75475141 -12 4 C-8.44479002 -0.18259997 -5.35439277 -0.84543044 0 0 Z " fill="#6B2987" transform="translate(397,84)"/>
<path d="M0 0 C1.60715087 0.74288342 3.21523798 1.48374449 4.82421875 2.22265625 C6.014104 2.77397217 6.014104 2.77397217 7.22802734 3.33642578 C26.2256855 12.02071955 46.14387654 17.89954023 66.5 22.375 C66.5 22.705 66.5 23.035 66.5 23.375 C60.07983926 23.75101809 54.72754435 23.0933646 48.58203125 21.23828125 C43.67694268 19.8643591 38.68879493 18.97655313 33.6875 18.0234375 C30.5 17.375 30.5 17.375 27.5 16.375 C27.5 15.715 27.5 15.055 27.5 14.375 C25.51432292 14.1796875 23.52864583 13.984375 21.54296875 13.7890625 C19.5 13.375 19.5 13.375 16.5 11.375 C14.84450469 10.99000109 13.1777567 10.64706865 11.5 10.375 C11.5 9.715 11.5 9.055 11.5 8.375 C9.85 8.375 8.2 8.375 6.5 8.375 C6.005 7.385 6.005 7.385 5.5 6.375 C3.52054469 5.64919972 1.53946354 4.92720814 -0.453125 4.23828125 C-2.5 3.375 -2.5 3.375 -5 1.1875 C-8.44118832 -1.30736153 -11.44656477 -1.14526851 -15.5 -0.625 C-18.64545415 0.10519471 -21.58038138 1.00438157 -24.57421875 2.2109375 C-25.62029297 2.63246094 -25.62029297 2.63246094 -26.6875 3.0625 C-27.32042969 3.33449219 -27.95335937 3.60648438 -28.60546875 3.88671875 C-30.89620979 4.47711593 -32.28039606 4.10830596 -34.5 3.375 C-32.27335683 2.389733 -30.04398683 1.41168556 -27.8125 0.4375 C-27.18666016 0.15970703 -26.56082031 -0.11808594 -25.91601562 -0.40429688 C-16.37054248 -4.55232971 -9.27230505 -4.47659761 0 0 Z " fill="#D8D1D6" transform="translate(345.5,133.625)"/>
<path d="M0 0 C0.99 0.495 0.99 0.495 2 1 C0.87630133 2.12369867 -0.24810448 3.2466948 -1.375 4.3671875 C-2.57270888 5.5706546 -3.75849246 6.78601839 -4.9375 8.0078125 C-8.39400985 11.55597224 -11.51279187 14.75639593 -16 17 C-16.495 16.01 -16.495 16.01 -17 15 C-17.55171875 15.45246094 -18.1034375 15.90492188 -18.671875 16.37109375 C-28.9754307 23.58012517 -45.76707319 24.80215913 -58 24 C-61.0625 23 -61.0625 23 -63 22 C-63 21.34 -63 20.68 -63 20 C-62.41210693 19.9906543 -61.82421387 19.98130859 -61.21850586 19.97167969 C-39.50547735 19.53974816 -16.11171149 16.11171149 0 0 Z " fill="#E0E0E1" transform="translate(501,257)"/>
<path d="M0 0 C1.8125 1.5 1.8125 1.5 3 3 C3.556875 2.505 4.11375 2.01 4.6875 1.5 C7.41508925 -0.26924708 8.80848491 -0.4199362 12 0 C14.49505962 2.49505962 14.35948376 3.67328888 14.625 7.125 C14.69976563 8.03507813 14.77453125 8.94515625 14.8515625 9.8828125 C14.90054688 10.58148438 14.94953125 11.28015625 15 12 C11.95022769 12.28771437 9.03696293 12.46096759 6 12 C4.1875 9.5 4.1875 9.5 3 7 C1.68 7 0.36 7 -1 7 C-0.01 7.33 0.98 7.66 2 8 C1.34 9.32 0.68 10.64 0 12 C-2.74086056 12.22223194 -4.43963721 12.34781139 -6.8125 10.875 C-8.55198782 8.12844028 -8.39769128 6.18153026 -8 3 C-5.90534242 -0.30735407 -3.75951639 -0.56392746 0 0 Z " fill="#F1EDE4" transform="translate(614,182)"/>
<path d="M0 0 C0.66 0.33 1.32 0.66 2 1 C2.60649365 24.46041849 0.31727734 46.91812056 -11 68 C-11.66 68 -12.32 68 -13 68 C-13.309375 68.94875 -13.61875 69.8975 -13.9375 70.875 C-15 74 -15 74 -16 76 C-16.66 76 -17.32 76 -18 76 C-18.0825 77.093125 -18.165 78.18625 -18.25 79.3125 C-19 83 -19 83 -20.9375 84.9375 C-23 86 -23 86 -25 86 C-23.61904948 82.20580426 -21.85302485 79.048996 -19.625 75.6875 C-14.13790592 67.1734346 -10.50201879 58.50379511 -7 49 C-6.70996094 48.24976563 -6.41992188 47.49953125 -6.12109375 46.7265625 C-0.60885816 31.6617092 -0.35914989 15.84228009 0 0 Z " fill="#E2E1E4" transform="translate(544,186)"/>
<path d="M0 0 C0.33 0.66 0.66 1.32 1 2 C2.32773168 2.67775425 3.66180088 3.34315501 5 4 C6.06987611 4.88357927 7.11128836 5.80251073 8.125 6.75 C23.20627113 19.93809028 41.5159947 24.21848388 61 25 C54.40395779 28.67648254 46.43979742 29.33065766 39 29 C39 28.34 39 27.68 39 27 C38.030625 26.773125 37.06125 26.54625 36.0625 26.3125 C30.57965115 24.75716124 25.04579554 22.04579554 21 18 C18.68234271 17.28072705 16.34904126 16.6090107 14 16 C14 15.34 14 14.68 14 14 C13.01 14 12.02 14 11 14 C11 13.34 11 12.68 11 12 C9.68 11.67 8.36 11.34 7 11 C7 10.34 7 9.68 7 9 C6.360625 8.7525 5.72125 8.505 5.0625 8.25 C3 7 3 7 2.25 4.875 C2.1675 4.25625 2.085 3.6375 2 3 C1.34 3 0.68 3 0 3 C0 2.01 0 1.02 0 0 Z " fill="#D9CCD6" transform="translate(389,313)"/>
<path d="M0 0 C1 3 1 3 0 5.6875 C-5.64819511 15.04232315 -13.34758953 21.73877585 -22.9296875 26.7734375 C-25.7268101 28.4306007 -27.74320051 30.68051163 -30 33 C-32.8125 34.3125 -32.8125 34.3125 -35 35 C-35 36.32 -35 37.64 -35 39 C-39.92737019 40.97094808 -43.78020872 41.1799928 -49 41 C-45.79935084 38.43483082 -42.4335731 36.60204158 -38.8125 34.6875 C-23.70708474 26.3092662 -10.15364172 13.95306894 0 0 Z " fill="#D3CAD4" transform="translate(518,272)"/>
<path d="M0 0 C1.958964 0.30852185 3.91715713 0.6219418 5.875 0.9375 C6.96554687 1.11152344 8.05609375 1.28554687 9.1796875 1.46484375 C12 2 12 2 14 3 C15.70363822 3.22622081 17.41328701 3.40888473 19.125 3.5625 C20.03507812 3.64628906 20.94515625 3.73007813 21.8828125 3.81640625 C22.58148438 3.87699219 23.28015625 3.93757812 24 4 C24 4.66 24 5.32 24 6 C25.051875 5.95875 26.10375 5.9175 27.1875 5.875 C30.82483306 5.99425682 32.74954544 6.54584927 36 8 C51.25341059 11.59525796 68.53589311 10.48285957 84 9 C83.67 9.66 83.34 10.32 83 11 C80.26171875 11.6328125 80.26171875 11.6328125 76.6875 12.125 C75.53636719 12.29257813 74.38523437 12.46015625 73.19921875 12.6328125 C62.92132544 13.70369198 52.93740385 12.71419106 42.75 11.25 C41.47600342 11.07025635 40.20200684 10.8905127 38.8894043 10.70532227 C29.72150524 9.36323673 20.88804482 7.61540757 12 5 C10.97519531 4.72027344 9.95039063 4.44054687 8.89453125 4.15234375 C2.30196078 2.30196078 2.30196078 2.30196078 0 0 Z " fill="#E8E9E9" transform="translate(388,153)"/>
<path d="M0 0 C0.33 0 0.66 0 1 0 C1.09796875 0.82242187 1.1959375 1.64484375 1.296875 2.4921875 C4.00396598 22.70202185 15.04890741 36.78522696 29 51 C28.01 51.495 28.01 51.495 27 52 C24.1796875 50.78515625 24.1796875 50.78515625 20.875 49.0625 C19.77929688 48.49660156 18.68359375 47.93070312 17.5546875 47.34765625 C16.71164062 46.90292969 15.86859375 46.45820313 15 46 C15.99 45.505 15.99 45.505 17 45 C17 43.35 17 41.7 17 40 C16.01 40 15.02 40 14 40 C13.34 38.02 12.68 36.04 12 34 C11.34 34 10.68 34 10 34 C6.96556054 30.0805157 4.63432791 25.6695083 3 21 C2.195625 19.2675 2.195625 19.2675 1.375 17.5 C-0.78228792 11.86286573 -0.24436668 5.93720531 0 0 Z " fill="#E3D1DC" transform="translate(293,280)"/>
<path d="M0 0 C9.625 -0.25 9.625 -0.25 13 2 C12.814375 3.010625 12.62875 4.02125 12.4375 5.0625 C12.00231753 8.97914227 12.29146979 12.14244663 13 16 C12.01 16 11.02 16 10 16 C9.67 14.02 9.34 12.04 9 10 C6.69 9.67 4.38 9.34 2 9 C2 11.31 2 13.62 2 16 C1.34 16 0.68 16 0 16 C0 10.72 0 5.44 0 0 Z " fill="#838586" transform="translate(591,178)"/>
<path d="M0 0 C0.66 0.33 1.32 0.66 2 1 C-5.25526442 5.82939019 -12.55981855 10.45104807 -20.25 14.5625 C-20.89332275 14.90861328 -21.53664551 15.25472656 -22.19946289 15.61132812 C-26.74172518 18 -26.74172518 18 -29 18 C-29 16 -29 16 -27.25 13.75 C-22.19393436 8.88173108 -14.80016124 5.5894656 -8.0625 3.8125 C-4.92444773 3.1315117 -4.92444773 3.1315117 -2.1875 1.3125 C-1.465625 0.879375 -0.74375 0.44625 0 0 Z M-29 18 C-32.47704761 19.84180245 -36.07434577 21.22825139 -39.75 22.625 C-40.92046875 23.07101562 -42.0909375 23.51703125 -43.296875 23.9765625 C-44.18890625 24.31429688 -45.0809375 24.65203125 -46 25 C-46 24.01 -46 23.02 -46 22 C-34.47835991 17.40774487 -34.47835991 17.40774487 -29 18 Z " fill="#E7E7E8" transform="translate(472,366)"/>
<path d="M0 0 C1.13396077 3.40986796 0.84635122 5.81938143 0.125 9.3125 C-0.16310547 10.77042969 -0.16310547 10.77042969 -0.45703125 12.2578125 C-0.63621094 13.16273438 -0.81539063 14.06765625 -1 15 C-1.35543427 17.33006911 -1.6913753 19.66327016 -2 22 C-2.17273438 23.07894531 -2.34546875 24.15789062 -2.5234375 25.26953125 C-3.33944178 31.81335913 -3.10440217 38.41813561 -3.0625 45 C-3.05747487 46.36067544 -3.05291376 47.72135267 -3.04882812 49.08203125 C-3.03710459 52.38806725 -3.02069427 55.69401001 -3 59 C-3.66 58.67 -4.32 58.34 -5 58 C-9.6233502 40.03666481 -6.05725954 17.17203674 0 0 Z " fill="#E5E2E5" transform="translate(260,189)"/>
<path d="M0 0 C0.33 0 0.66 0 1 0 C1.15855469 0.825 1.31710938 1.65 1.48046875 2.5 C2.68535826 8.4645359 3.99352522 14.16072058 6.0012207 19.89770508 C9.00641395 28.55621099 10.33243029 36.81733459 9 46 C7.47070312 47.7019043 7.47070312 47.7019043 6 49 C5.98018066 48.40050537 5.96036133 47.80101074 5.93994141 47.18334961 C5.84394997 44.43433529 5.73457495 41.68600507 5.625 38.9375 C5.5940625 37.99455078 5.563125 37.05160156 5.53125 36.08007812 C5.26879328 29.80298835 4.19071683 24.47383441 2.1484375 18.515625 C0.00347942 12.23241446 -0.33919772 6.60807411 0 0 Z " fill="#E6CBDB" transform="translate(150,149)"/>
<path d="M0 0 C0.66 0.33 1.32 0.66 2 1 C0.87630133 2.12369867 -0.24810448 3.2466948 -1.375 4.3671875 C-2.57270888 5.5706546 -3.75849246 6.78601839 -4.9375 8.0078125 C-8.39400985 11.55597224 -11.51279187 14.75639593 -16 17 C-16.33 16.34 -16.66 15.68 -17 15 C-17.598125 15.474375 -18.19625 15.94875 -18.8125 16.4375 C-22.27596693 18.91140495 -24.60120302 19.09549526 -28.6875 18.5625 C-29.49574219 18.46066406 -30.30398438 18.35882813 -31.13671875 18.25390625 C-32.05904297 18.12822266 -32.05904297 18.12822266 -33 18 C-33 17.67 -33 17.34 -33 17 C-31.80375 16.62875 -30.6075 16.2575 -29.375 15.875 C-18.53093282 12.21469972 -8.22357263 8.22357263 0 0 Z " fill="#E1E1E2" transform="translate(501,257)"/>
<path d="M0 0 C0.33 0 0.66 0 1 0 C1.07474224 4.26835703 1.12887823 8.53635674 1.16479492 12.80517578 C1.17978417 14.25413661 1.20018271 15.70305283 1.22631836 17.15185547 C1.36475247 25.02902762 1.38033234 31.71608978 -2 39 C-2.58683904 41.2595811 -3.13233366 43.53053447 -3.625 45.8125 C-4.30921672 48.95033258 -4.98421452 51.95264356 -6 55 C-6.99 55 -7.98 55 -9 55 C-8.81824219 54.42894531 -8.63648438 53.85789063 -8.44921875 53.26953125 C-6.27353409 46.25155356 -4.55532434 39.17909597 -3 32 C-2.80277344 31.16339844 -2.60554687 30.32679688 -2.40234375 29.46484375 C-0.33573024 19.80533913 -0.33710147 9.84034829 0 0 Z " fill="#D4D1DB" transform="translate(524,156)"/>
<path d="M0 0 C1.89492188 0.43119141 1.89492188 0.43119141 3.828125 0.87109375 C23.24756155 5.16592237 42.14909961 6.75356331 62 7 C62 7.33 62 7.66 62 8 C17.77100687 8.57240111 17.77100687 8.57240111 0 2 C0 1.34 0 0.68 0 0 Z " fill="#D5C1CE" transform="translate(316,388)"/>
<path d="M0 0 C0.66 0.33 1.32 0.66 2 1 C0.02 1.99 0.02 1.99 -2 3 C-2 3.66 -2 4.32 -2 5 C-2.845625 5.17015625 -3.69125 5.3403125 -4.5625 5.515625 C-12.05167674 7.0288695 -12.05167674 7.0288695 -19 10.0625 C-26.37002541 14.13787422 -35.74274398 14.32381396 -44 14 C-44 13.67 -44 13.34 -44 13 C-43.39752441 12.88519287 -42.79504883 12.77038574 -42.17431641 12.65209961 C-28.46427592 9.9889327 -15.84911626 6.45647403 -3 1 C-2.01 0.67 -1.02 0.34 0 0 Z " fill="#D4C0CE" transform="translate(445,379)"/>
<path d="M0 0 C0.66 0 1.32 0 2 0 C5.36925898 10.36849342 6.82824533 19.47398713 2.2890625 29.6953125 C0.28708449 33.27460652 -2.1690032 36.04032153 -5 39 C-5.66 38.67 -6.32 38.34 -7 38 C-5.8553125 37.071875 -5.8553125 37.071875 -4.6875 36.125 C-1.50418839 32.99579567 -0.67013782 29.44175539 0.421875 25.20703125 C1 23 1 23 2 21 C2.49035969 13.69021946 1.88301088 7.06129081 0 0 Z " fill="#E5DDE4" transform="translate(494,117)"/>
<path d="M0 0 C0.95777344 0.10183594 1.91554688 0.20367187 2.90234375 0.30859375 C3.97162109 0.43427734 3.97162109 0.43427734 5.0625 0.5625 C5.0625 0.8925 5.0625 1.2225 5.0625 1.5625 C-0.09604328 2.61234905 -5.0439584 2.7078285 -10.28125 2.6953125 C-11.16856812 2.69626923 -12.05588623 2.69722595 -12.97009277 2.69821167 C-14.83927481 2.69888977 -16.70845925 2.69706135 -18.57763672 2.69287109 C-21.42811403 2.68751763 -24.2784338 2.69282866 -27.12890625 2.69921875 C-28.95052118 2.6985579 -30.77213601 2.6972766 -32.59375 2.6953125 C-33.44078491 2.69733673 -34.28781982 2.69936096 -35.16052246 2.70144653 C-39.53271545 2.6842414 -43.63234281 2.43867083 -47.9375 1.5625 C-47.9375 1.2325 -47.9375 0.9025 -47.9375 0.5625 C-46.40210571 0.57035522 -46.40210571 0.57035522 -44.83569336 0.57836914 C-41.01327398 0.59656262 -37.19085838 0.60798416 -33.3684082 0.61743164 C-31.71866206 0.62243919 -30.0689203 0.62924716 -28.41918945 0.63793945 C-26.03856315 0.65016254 -23.65799587 0.65576422 -21.27734375 0.66015625 C-20.18316383 0.66789818 -20.18316383 0.66789818 -19.06687927 0.67579651 C-12.62136251 0.67649179 -6.42651856 -0.71405762 0 0 Z " fill="#EF2AA0" transform="translate(390.9375,392.4375)"/>
<path d="M0 0 C0.66 0.33 1.32 0.66 2 1 C-3.83113046 9.67809416 -10.47707556 15.28604587 -20.86328125 17.65234375 C-21.92095703 17.82443359 -21.92095703 17.82443359 -23 18 C-19.87837748 14.64235236 -16.41952498 12.09364051 -12.625 9.5625 C-8.19113262 6.59450232 -4.05493139 3.47303036 0 0 Z " fill="#DDD7DD" transform="translate(485,353)"/>
<path d="M0 0 C2 2 2 2 2 6 C-0.64 6 -3.28 6 -6 6 C-5.67 6.99 -5.34 7.98 -5 9 C-3.35 9.33 -1.7 9.66 0 10 C0 9.34 0 8.68 0 8 C0.66 8 1.32 8 2 8 C1.34 9.32 0.68 10.64 0 12 C-2.74086056 12.22223194 -4.43963721 12.34781139 -6.8125 10.875 C-8.55198782 8.12844028 -8.39769128 6.18153026 -8 3 C-5.8975876 -0.31959853 -3.76753493 -0.4830173 0 0 Z " fill="#949DA4" transform="translate(614,182)"/>
<path d="M0 0 C0.66 0.33 1.32 0.66 2 1 C3.40272648 7.14702941 3.18390495 13.35523262 3.1875 19.625 C3.19974609 20.75679687 3.21199219 21.88859375 3.22460938 23.0546875 C3.22654297 24.14265625 3.22847656 25.230625 3.23046875 26.3515625 C3.23457764 27.33979004 3.23868652 28.32801758 3.24291992 29.34619141 C3 32 3 32 1 36 C0.67 25.77 0.34 15.54 0 5 C-0.99 5.495 -0.99 5.495 -2 6 C-1.34 4.02 -0.68 2.04 0 0 Z " fill="#6D4B9C" transform="translate(541,178)"/>
<path d="M0 0 C-3.68864215 1.22954738 -4.66959181 0.25913997 -8.04296875 -1.2890625 C-14.41055322 -3.6022369 -21.02731285 -1.60104529 -27.07421875 0.8359375 C-28.12029297 1.25746094 -28.12029297 1.25746094 -29.1875 1.6875 C-29.82042969 1.95949219 -30.45335937 2.23148438 -31.10546875 2.51171875 C-33.39620979 3.10211593 -34.78039606 2.73330596 -37 2 C-34.77335683 1.014733 -32.54398683 0.03668556 -30.3125 -0.9375 C-29.68666016 -1.21529297 -29.06082031 -1.49308594 -28.41601562 -1.77929688 C-17.5528961 -6.49991949 -10.36627088 -5.24874475 0 0 Z " fill="#CFC7CF" transform="translate(348,135)"/>
<path d="M0 0 C6.91496122 1.1137077 13.43227632 3.0242904 20.078125 5.17138672 C25.32430343 6.84460727 30.55791312 8.12351005 36 9 C36 9.33 36 9.66 36 10 C27.27205721 10.94412843 19.95201225 8.42476932 11.83105469 5.62402344 C9.42353849 4.80354192 6.99185955 4.06536862 4.5625 3.3125 C1 2 1 2 0 0 Z " fill="#D4C7D0" transform="translate(376,147)"/>
<path d="M0 0 C1 3 1 3 0 5.6875 C-3.73927204 11.88066932 -8.82644884 16.98322312 -14 22 C-14.66 21.67 -15.32 21.34 -16 21 C-15.401875 20.278125 -14.80375 19.55625 -14.1875 18.8125 C-12.02468511 16.16158738 -12.02468511 16.16158738 -10.65625 13.6875 C-8.76870952 10.62469847 -6.61171605 7.95322366 -4.3125 5.1875 C-3.50425781 4.21167969 -2.69601562 3.23585938 -1.86328125 2.23046875 C-1.24839844 1.49441406 -0.63351562 0.75835937 0 0 Z " fill="#E4E4E5" transform="translate(518,272)"/>
<path d="M0 0 C5.78898419 -0.20674944 10.42932723 0.40837921 16 2 C16 2.99 16 3.98 16 5 C18.97 5.495 18.97 5.495 22 6 C22 6.33 22 6.66 22 7 C15.7945858 6.51679152 10.00054754 5.66681876 4 4 C4 3.34 4 2.68 4 2 C2.68 1.67 1.36 1.34 0 1 C0 0.67 0 0.34 0 0 Z " fill="#DACED6" transform="translate(300,385)"/>
<path d="M0 0 C-3.0581759 2.03878393 -5.52519998 2.84173333 -9 4 C-12.15118809 5.31689327 -15.26224863 6.72004204 -18.375 8.125 C-19.62216797 8.68380859 -19.62216797 8.68380859 -20.89453125 9.25390625 C-22.93084255 10.16673546 -24.96594539 11.08215598 -27 12 C-27 11.34 -27 10.68 -27 10 C-26.0409375 9.5978125 -26.0409375 9.5978125 -25.0625 9.1875 C-22.66868314 8.11332248 -22.66868314 8.11332248 -22 5 C-19.92578125 4.12109375 -19.92578125 4.12109375 -17.3125 3.4375 C-14.39295681 2.64843427 -11.5944922 1.85183369 -8.75 0.8125 C-5.715116 -0.08417027 -3.14781434 -0.14989592 0 0 Z " fill="#E1E0E2" transform="translate(329,134)"/>
<path d="M0 0 C0.66 0 1.32 0 2 0 C2.33 2.31 2.66 4.62 3 7 C3.66 7 4.32 7 5 7 C5 20.2 5 33.4 5 47 C4.67 47 4.34 47 4 47 C3.98018066 45.93040039 3.96036133 44.86080078 3.93994141 43.75878906 C3.8637902 39.78524488 3.77508758 35.81206234 3.68261719 31.83886719 C3.64436673 30.12018989 3.60950697 28.40143362 3.578125 26.68261719 C3.53238872 24.2099996 3.47440916 21.73792387 3.4140625 19.265625 C3.40251129 18.49881409 3.39096008 17.73200317 3.37905884 16.94195557 C3.2729351 13.09406907 2.95910171 10.32150352 1 7 C0.61250787 4.67504723 0.27017161 2.34148732 0 0 Z " fill="#E4E4E5" transform="translate(504,117)"/>
<path d="M0 0 C1.6852084 4.07679159 0.16939007 6.83075593 -1.4375 10.75 C-1.91058594 11.92046875 -2.38367188 13.0909375 -2.87109375 14.296875 C-3.24363281 15.18890625 -3.61617187 16.0809375 -4 17 C-4.66 17 -5.32 17 -6 17 C-6.28875 17.7425 -6.5775 18.485 -6.875 19.25 C-8.8852459 24.16393443 -8.8852459 24.16393443 -10 26 C-10.99 26.33 -11.98 26.66 -13 27 C-11.14424293 21.98080213 -8.57308114 17.38272142 -6.00976562 12.703125 C-3.75893439 8.54904851 -1.80069282 4.36907913 0 0 Z " fill="#D8D3DA" transform="translate(536,285)"/>
<path d="M0 0 C0.33 0 0.66 0 1 0 C0.125 6.75 0.125 6.75 -1 9 C-0.34 9.33 0.32 9.66 1 10 C-2.3 13.3 -5.6 16.6 -9 20 C-9.66 19.67 -10.32 19.34 -11 19 C-10.54109375 18.29875 -10.0821875 17.5975 -9.609375 16.875 C-6.05198951 11.37450479 -2.79479035 5.92495554 0 0 Z " fill="#D5D1D8" transform="translate(512,215)"/>
<path d="M0 0 C0.99 0 1.98 0 3 0 C3 3.96 3 7.92 3 12 C-1 11 -1 11 -2 10 C-2.27314815 4.26388889 -2.27314815 4.26388889 -2 2 C-1.34 1.34 -0.68 0.68 0 0 Z " fill="#7E8F9E" transform="translate(633,182)"/>
<path d="M0 0 C0.66 0.33 1.32 0.66 2 1 C0.87955256 2.12044744 -0.24263771 3.23918133 -1.37109375 4.3515625 C-2.59722346 5.59239401 -3.79284036 6.8634895 -4.97265625 8.1484375 C-5.66230469 8.88320313 -6.35195313 9.61796875 -7.0625 10.375 C-8.03896484 11.43847656 -8.03896484 11.43847656 -9.03515625 12.5234375 C-11 14 -11 14 -12.99609375 13.7890625 C-13.65738281 13.52867187 -14.31867188 13.26828125 -15 13 C-15.7425 12.814375 -16.485 12.62875 -17.25 12.4375 C-17.8275 12.293125 -18.405 12.14875 -19 12 C-17.82244141 11.45472656 -17.82244141 11.45472656 -16.62109375 10.8984375 C-10.27710109 7.86266187 -5.09096755 4.85955993 0 0 Z " fill="#C7BECA" transform="translate(501,257)"/>
<path d="M0 0 C0.88336837 2.4667645 1.1312406 3.63859372 0.22265625 6.140625 C-0.16019531 6.83671875 -0.54304687 7.5328125 -0.9375 8.25 C-1.31777344 8.95640625 -1.69804688 9.6628125 -2.08984375 10.390625 C-2.39019531 10.92171875 -2.69054687 11.4528125 -3 12 C-3.66 12 -4.32 12 -5 12 C-5.0825 13.093125 -5.165 14.18625 -5.25 15.3125 C-6 19 -6 19 -7.9375 20.9375 C-10 22 -10 22 -12 22 C-10.60596497 18.16466979 -8.80677636 14.96511255 -6.5625 11.5625 C-4.11316683 7.7864447 -1.87792415 4.08724668 0 0 Z " fill="#D7D3DA" transform="translate(531,250)"/>
<path d="M0 0 C0.33 0 0.66 0 1 0 C1.13277344 1.22976562 1.26554688 2.45953125 1.40234375 3.7265625 C1.58064043 5.35938469 1.7590308 6.99219666 1.9375 8.625 C2.02451172 9.43324219 2.11152344 10.24148437 2.20117188 11.07421875 C2.67709537 15.41041058 3.22837189 19.70390836 4 24 C0.53274483 22.26637241 -0.65740363 18.50993051 -2 15 C-2.25 11.5 -2.25 11.5 -2 9 C-1.67 9 -1.34 9 -1 9 C-0.67 6.03 -0.34 3.06 0 0 Z " fill="#5B2A8B" transform="translate(171,236)"/>
<path d="M0 0 C0.08166849 3.00056084 0.14081551 5.9988539 0.1875 9 C0.22520508 10.25876953 0.22520508 10.25876953 0.26367188 11.54296875 C0.33182365 17.40402129 -0.63271165 21.63166106 -3 27 C-3.33 26.01 -3.66 25.02 -4 24 C-3.67 23.34 -3.34 22.68 -3 22 C-2.91599471 20.40552536 -2.89272533 18.80759455 -2.90234375 17.2109375 C-2.90556641 16.26992187 -2.90878906 15.32890625 -2.91210938 14.359375 C-2.92048828 13.37453125 -2.92886719 12.3896875 -2.9375 11.375 C-2.94201172 10.38242188 -2.94652344 9.38984375 -2.95117188 8.3671875 C-2.96297855 5.9113984 -2.979446 3.45572896 -3 1 C-1 0 -1 0 0 0 Z " fill="#E9CFDE" transform="translate(183,79)"/>
<path d="M0 0 C0.66 0.33 1.32 0.66 2 1 C1.5153125 1.46148437 1.030625 1.92296875 0.53125 2.3984375 C-4.10337772 6.90828678 -8.18877877 11.62897913 -12.16796875 16.72265625 C-14.29034327 19.36091711 -16.53276604 21.68696816 -19 24 C-19.33 23.34 -19.66 22.68 -20 22 C-19.34 21.34 -18.68 20.68 -18 20 C-17.195625 19.05125 -16.39125 18.1025 -15.5625 17.125 C-10.58182218 11.27703998 -5.43297909 5.43297909 0 0 Z " fill="#8E1E8B" transform="translate(214,132)"/>
<path d="M0 0 C0 0.99 0 1.98 0 3 C-0.33 3.33 -0.66 3.66 -1 4 C4.28 4.66 9.56 5.32 15 6 C15 6.33 15 6.66 15 7 C7.74 7 0.48 7 -7 7 C-7 6.34 -7 5.68 -7 5 C-5.03277992 3.61876037 -3.03131672 2.28511874 -1 1 C-0.67 0.67 -0.34 0.34 0 0 Z " fill="#B04DA4" transform="translate(445,270)"/>
<path d="M0 0 C0.66 0.33 1.32 0.66 2 1 C-1.465 3.97 -1.465 3.97 -5 7 C-5.66 6.67 -6.32 6.34 -7 6 C-3.375 1.125 -3.375 1.125 0 0 Z M-9 7 C-8.34 7.33 -7.68 7.66 -7 8 C-7.33 8.66 -7.66 9.32 -8 10 C-7.34 10.33 -6.68 10.66 -6 11 C-10.43076923 13.09230769 -10.43076923 13.09230769 -13.3125 12.625 C-13.869375 12.41875 -14.42625 12.2125 -15 12 C-11.25 8.125 -11.25 8.125 -9 7 Z " fill="#EAE9EA" transform="translate(497,297)"/>
<path d="M0 0 C4.76833017 0.48491493 8.5950359 1.06611332 13 3 C15.33176058 3.75822984 17.66923421 4.49435142 20.01171875 5.21875 C22 6 22 6 24 8 C22.06201479 7.69052329 20.12462574 7.37731166 18.1875 7.0625 C17.10855469 6.88847656 16.02960938 6.71445313 14.91796875 6.53515625 C12 6 12 6 9 5 C9 4.34 9 3.68 9 3 C7.700625 2.87625 6.40125 2.7525 5.0625 2.625 C2.84765625 2.4140625 2.84765625 2.4140625 1 2 C0.67 1.34 0.34 0.68 0 0 Z " fill="#E5E5E5" transform="translate(364,145)"/>
<path d="M0 0 C2.375 -0.125 2.375 -0.125 5 0 C7.49505962 2.49505962 7.35948376 3.67328888 7.625 7.125 C7.69976563 8.03507813 7.77453125 8.94515625 7.8515625 9.8828125 C7.90054688 10.58148438 7.94953125 11.28015625 8 12 C6.35 11.67 4.7 11.34 3 11 C3.66 9.35 4.32 7.7 5 6 C4.01 5.67 3.02 5.34 2 5 C2.99 5 3.98 5 5 5 C5 4.01 5 3.02 5 2 C3.35 2 1.7 2 0 2 C0 2.66 0 3.32 0 4 C-0.66 4 -1.32 4 -2 4 C-1.34 2.68 -0.68 1.36 0 0 Z " fill="#788595" transform="translate(621,182)"/>
<path d="M0 0 C1.32 0.33 2.64 0.66 4 1 C2.68 1.33 1.36 1.66 0 2 C0 1.34 0 0.68 0 0 Z M0 2 C-3.47704761 3.84180245 -7.07434577 5.22825139 -10.75 6.625 C-11.92046875 7.07101562 -13.0909375 7.51703125 -14.296875 7.9765625 C-15.18890625 8.31429688 -16.0809375 8.65203125 -17 9 C-17 8.01 -17 7.02 -17 6 C-5.47835991 1.40774487 -5.47835991 1.40774487 0 2 Z " fill="#E7E7E8" transform="translate(443,382)"/>
<path d="M0 0 C0.66 0.33 1.32 0.66 2 1 C1.55269531 1.37511719 1.10539062 1.75023437 0.64453125 2.13671875 C-3.07087211 5.28174036 -6.60202058 8.50763226 -10 12 C-11 13 -12 14 -13 15 C-13.66 14.67 -14.32 14.34 -15 14 C-10.75802296 8.34403061 -5.5954014 4.28075369 0 0 Z " fill="#E7E8E8" transform="translate(497,345)"/>
<path d="M0 0 C2.64 0 5.28 0 8 0 C8 1.65 8 3.3 8 5 C5.36 5 2.72 5 0 5 C0 3.35 0 1.7 0 0 Z " fill="#ECF2F4" transform="translate(593,180)"/>
<path d="M0 0 C-0.33 1.98 -0.66 3.96 -1 6 C-2.66611905 6.042721 -4.33382885 6.04063832 -6 6 C-7 5 -7 5 -7.0625 2.4375 C-7.041875 1.633125 -7.02125 0.82875 -7 0 C-4.3333581 -1.33332095 -2.83319697 -0.67102033 0 0 Z " fill="#AFBABF" transform="translate(626,188)"/>
<path d="M0 0 C0 3 0 3 -2.40625 5.69921875 C-3.4299968 6.70302243 -4.4616054 7.69885649 -5.5 8.6875 C-6.02464844 9.19861328 -6.54929688 9.70972656 -7.08984375 10.23632812 C-8.38660904 11.49772708 -9.69246117 12.74977212 -11 14 C-11.66 13.67 -12.32 13.34 -13 13 C-11.58791833 11.39179588 -10.17013964 9.78859292 -8.75 8.1875 C-7.96109375 7.29417969 -7.1721875 6.40085937 -6.359375 5.48046875 C-4.34120555 3.35871775 -2.40083295 1.65745577 0 0 Z " fill="#F1279C" transform="translate(168,118)"/>
<path d="M0 0 C6.71539173 1.29975324 12.72019113 3.29928888 19 6 C19 6.33 19 6.66 19 7 C11.6442203 8.00306087 6.3057121 4.47901358 0 1 C0 0.67 0 0.34 0 0 Z " fill="#D6C2CE" transform="translate(286,378)"/>
<path d="M0 0 C0.33 0.99 0.66 1.98 1 3 C0.07421875 4.82421875 0.07421875 4.82421875 -1.3125 6.6875 C-1.76238281 7.31011719 -2.21226562 7.93273437 -2.67578125 8.57421875 C-3.11277344 9.04472656 -3.54976562 9.51523437 -4 10 C-4.66 10 -5.32 10 -6 10 C-6.33 11.32 -6.66 12.64 -7 14 C-7.66 14 -8.32 14 -9 14 C-9 14.66 -9 15.32 -9 16 C-9.66 16 -10.32 16 -11 16 C-9.32076975 12.19866558 -6.88537166 9.02917298 -4.375 5.75 C-3.95476563 5.19570313 -3.53453125 4.64140625 -3.1015625 4.0703125 C-2.07061281 2.71133337 -1.03570089 1.35536165 0 0 Z " fill="#D3CCD5" transform="translate(522,312)"/>
<path d="M0 0 C-1 3 -1 3 -3.03125 4.09765625 C-3.8459375 4.41605469 -4.660625 4.73445312 -5.5 5.0625 C-8.96056812 6.22702003 -8.96056812 6.22702003 -11 9 C-13.5625 9.625 -13.5625 9.625 -16 10 C-12.15364338 5.6573393 -6.12239358 0 0 0 Z " fill="#CFC8D1" transform="translate(307,140)"/>
<path d="M0 0 C4.16486198 -0.30017023 6.65015727 0.54675054 10.3125 2.5 C11.19550781 2.9640625 12.07851563 3.428125 12.98828125 3.90625 C13.65214844 4.2671875 14.31601562 4.628125 15 5 C10.74938644 6.41687119 8.28148375 5.19320039 4 4 C4 3.34 4 2.68 4 2 C2.68 1.67 1.36 1.34 0 1 C0 0.67 0 0.34 0 0 Z " fill="#E3E3E4" transform="translate(300,385)"/>
<path d="M0 0 C-1.98 0.99 -1.98 0.99 -4 2 C-4 2.66 -4 3.32 -4 4 C-7.63 4.66 -11.26 5.32 -15 6 C-12.1374657 3.1374657 -10.58516266 2.18972547 -6.9375 0.75 C-6.05964844 0.39421875 -5.18179687 0.0384375 -4.27734375 -0.328125 C-2 -1 -2 -1 0 0 Z " fill="#D6CED4" transform="translate(447,380)"/>
<path d="M0 0 C0 0.66 0 1.32 0 2 C-1.74122549 3.03572896 -3.49336595 4.0531252 -5.25 5.0625 C-6.71179688 5.91521484 -6.71179688 5.91521484 -8.203125 6.78515625 C-11 8 -11 8 -13.359375 7.68359375 C-13.90078125 7.45800781 -14.4421875 7.23242188 -15 7 C-12.87767021 5.82823482 -10.75242209 4.66245215 -8.625 3.5 C-7.72007812 2.99919922 -7.72007812 2.99919922 -6.796875 2.48828125 C-2.2265625 0 -2.2265625 0 0 0 Z " fill="#D4CAD2" transform="translate(462,371)"/>
<path d="M0 0 C0.33 0.99 0.66 1.98 1 3 C-1.59177765 7.87254198 -4.37911618 10.26947774 -9 13 C-7.50923566 9.7173068 -5.61379679 7.06922559 -3.375 4.25 C-2.74335938 3.45078125 -2.11171875 2.6515625 -1.4609375 1.828125 C-0.97882813 1.22484375 -0.49671875 0.6215625 0 0 Z " fill="#D6CFD6" transform="translate(278,160)"/>
<path d="M0 0 C5.92863717 1.16651426 11.38798394 2.75519358 17 5 C13.02623171 6.56393356 10.18622097 5.36145292 6.25 4.0625 C4.49429687 3.49208984 4.49429687 3.49208984 2.703125 2.91015625 C1.81109375 2.60980469 0.9190625 2.30945313 0 2 C0 1.34 0 0.68 0 0 Z " fill="#D5CDD3" transform="translate(359,141)"/>
<path d="M0 0 C3.88975419 3.59054233 6.89732195 7.73898882 10 12 C8.68 11.67 7.36 11.34 6 11 C6 10.34 6 9.68 6 9 C5.01 9 4.02 9 3 9 C2.01 6.03 1.02 3.06 0 0 Z " fill="#DDC4D3" transform="translate(304,311)"/>
<path d="M0 0 C-0.75 4.75 -0.75 4.75 -3 7 C-3 4.69 -3 2.38 -3 0 C-5.64 0 -8.28 0 -11 0 C-11 -0.33 -11 -0.66 -11 -1 C-6.58937864 -2.0257259 -4.07369424 -2.03684712 0 0 Z " fill="#7D91A0" transform="translate(604,180)"/>
<path d="M0 0 C0.66 0 1.32 0 2 0 C2.33 2.31 2.66 4.62 3 7 C3.66 7 4.32 7 5 7 C5 9.97 5 12.94 5 16 C4.67 16 4.34 16 4 16 C2.07528683 10.66164461 0.60108576 5.65020618 0 0 Z " fill="#CAC4D4" transform="translate(504,117)"/>
<path d="M0 0 C3.99887575 0.57126796 6.59653716 1.87283572 10 4 C11.65369357 4.69822617 13.31727014 5.37498605 15 6 C12.3333581 7.33332095 10.83319697 6.67102033 8 6 C8 5.34 8 4.68 8 4 C6.35 4 4.7 4 3 4 C3 3.34 3 2.68 3 2 C2.01 1.67 1.02 1.34 0 1 C0 0.67 0 0.34 0 0 Z " fill="#E3E3E4" transform="translate(283,378)"/>
<path d="M0 0 C0.33 1.32 0.66 2.64 1 4 C-0.32 4 -1.64 4 -3 4 C-2.67 4.99 -2.34 5.98 -2 7 C-3.65 7 -5.3 7 -7 7 C-7.33 5.68 -7.66 4.36 -8 3 C-5.36 3 -2.72 3 0 3 C0 2.01 0 1.02 0 0 Z " fill="#C8D8E0" transform="translate(616,185)"/>
<path d="M0 0 C-3.0347872 2.02319147 -5.53858412 2.91406561 -9 4 C-10.11375 4.37125 -11.2275 4.7425 -12.375 5.125 C-13.24125 5.41375 -14.1075 5.7025 -15 6 C-14 3 -14 3 -12.36328125 2.05078125 C-8.08873693 0.5119453 -4.61594432 -0.34619582 0 0 Z " fill="#E6E7E7" transform="translate(329,134)"/>
<path d="M0 0 C0.33 0.99 0.66 1.98 1 3 C-0.14453125 4.82421875 -0.14453125 4.82421875 -1.8125 6.6875 C-2.35519531 7.31011719 -2.89789062 7.93273437 -3.45703125 8.57421875 C-5 10 -5 10 -7 10 C-5.33248852 6.05860922 -2.77289351 3.2107188 0 0 Z " fill="#D3CED6" transform="translate(518,272)"/>
<path d="M0 0 C0.99 0.33 1.98 0.66 3 1 C1.8758824 2.29243468 0.75067408 3.58392075 -0.375 4.875 C-1.00148437 5.59429687 -1.62796875 6.31359375 -2.2734375 7.0546875 C-3.47426834 8.4076598 -4.7208345 9.7208345 -6 11 C-5.55530671 5.96014269 -3.28656638 3.62365012 0 0 Z " fill="#F0D1E4" transform="translate(192,54)"/>
<path d="M0 0 C-0.33 0.99 -0.66 1.98 -1 3 C-5.62 3 -10.24 3 -15 3 C-15 2.67 -15 2.34 -15 2 C-13.06302033 1.66365624 -11.12539514 1.33102835 -9.1875 1 C-7.56908203 0.7215625 -7.56908203 0.7215625 -5.91796875 0.4375 C-3 0 -3 0 0 0 Z " fill="#D2C4CE" transform="translate(473,159)"/>
<path d="M0 0 C0.66 0.33 1.32 0.66 2 1 C0.87895467 2.31587941 -0.24696965 3.62760353 -1.375 4.9375 C-2.00148438 5.66839844 -2.62796875 6.39929688 -3.2734375 7.15234375 C-5 9 -5 9 -7 10 C-5.76075855 5.04303419 -4.21422242 2.88341534 0 0 Z " fill="#E5E5E5" transform="translate(284,156)"/>
<path d="M0 0 C2.76276177 0.52268466 5.3260876 1.10869587 8 2 C8 2.66 8 3.32 8 4 C9.65 4.33 11.3 4.66 13 5 C10.3333581 6.33332095 8.83319697 5.67102033 6 5 C6 4.34 6 3.68 6 3 C4.35 3 2.7 3 1 3 C0.67 2.01 0.34 1.02 0 0 Z " fill="#E4E4E5" transform="translate(351,139)"/>
<path d="M0 0 C5.875 4.625 5.875 4.625 7 8 C4.24542282 7.62005832 3.17979426 7.1926367 1.25 5.125 C0 3 0 3 0 0 Z " fill="#DCCBD6" transform="translate(212,324)"/>
<path d="M0 0 C0.33 0.66 0.66 1.32 1 2 C1.61875 2.28875 2.2375 2.5775 2.875 2.875 C5.36796335 4.19480413 6.45147781 5.67721672 8 8 C6.35 7.67 4.7 7.34 3 7 C2.67 5.68 2.34 4.36 2 3 C1.34 3 0.68 3 0 3 C0 2.01 0 1.02 0 0 Z " fill="#DFCCD9" transform="translate(389,313)"/>
<path d="M0 0 C0.66 0.33 1.32 0.66 2 1 C-2.90924297 4.92739438 -5.73920552 5.43177893 -12 5 C-12 4.67 -12 4.34 -12 4 C-8 2.66666667 -4 1.33333333 0 0 Z " fill="#CABFCC" transform="translate(480,270)"/>
<path d="M0 0 C0.66 0 1.32 0 2 0 C2 2.64 2 5.28 2 8 C1.01 7.67 0.02 7.34 -1 7 C-1.04254356 5.00045254 -1.04080783 2.99958364 -1 1 C-0.67 0.67 -0.34 0.34 0 0 Z " fill="#F5F9FA" transform="translate(634,184)"/>
<path d="M0 0 C5.95703125 -0.29296875 5.95703125 -0.29296875 8 0 C8.99 0.99 9.98 1.98 11 3 C7.04 2.67 3.08 2.34 -1 2 C-0.67 1.34 -0.34 0.68 0 0 Z " fill="#E5E5E5" transform="translate(330,132)"/>
<path d="M0 0 C0.66 0.33 1.32 0.66 2 1 C0.02 3.31 -1.96 5.62 -4 8 C-4.99 7.34 -5.98 6.68 -7 6 C-4.69 4.02 -2.38 2.04 0 0 Z " fill="#D4C9D3" transform="translate(485,353)"/>
<path d="M0 0 C0.33 0.99 0.66 1.98 1 3 C-1.31 5.31 -3.62 7.62 -6 10 C-6.66 9.67 -7.32 9.34 -8 9 C-5.36 6.03 -2.72 3.06 0 0 Z " fill="#D4CFD5" transform="translate(510,328)"/>
<path d="M0 0 C3.26296197 0.22503186 4.04203745 1.04787598 6.25 3.5625 C7.11625 4.7690625 7.11625 4.7690625 8 6 C4.22454612 4.90931332 1.52956528 4.0916909 -1 1 C-0.67 0.67 -0.34 0.34 0 0 Z " fill="#DAC5D2" transform="translate(314,326)"/>
<path d="M0 0 C5.875 4.625 5.875 4.625 7 8 C4.24542282 7.62005832 3.17979426 7.1926367 1.25 5.125 C0 3 0 3 0 0 Z " fill="#DCCCD6" transform="translate(205,316)"/>
<path d="M0 0 C3.48331435 3.01887244 4.79157144 5.56909529 6 10 C4.125 9.5 4.125 9.5 2 8 C1.01505446 5.34822355 0.54087618 2.79452693 0 0 Z " fill="#D4C3D2" transform="translate(167,248)"/>
<path d="M0 0 C0.66 0.33 1.32 0.66 2 1 C-0.25 3.5625 -0.25 3.5625 -3 6 C-4.32 5.67 -5.64 5.34 -7 5 C-4.69 3.35 -2.38 1.7 0 0 Z " fill="#D5C9D2" transform="translate(469,365)"/>
<path d="M0 0 C0.66 0.33 1.32 0.66 2 1 C-0.475 4.465 -0.475 4.465 -3 8 C-3.33 6.68 -3.66 5.36 -4 4 C-2.0625 1.75 -2.0625 1.75 0 0 Z M-6 8 C-5.01 8.495 -5.01 8.495 -4 9 C-4.66 9.66 -5.32 10.32 -6 11 C-6 10.01 -6 9.02 -6 8 Z " fill="#E8E8E9" transform="translate(273,169)"/>
<path d="M0 0 C2.31 0 4.62 0 7 0 C7 0.66 7 1.32 7 2 C9.31 2 11.62 2 14 2 C14 2.33 14 2.66 14 3 C4.58997722 3.3690205 4.58997722 3.3690205 0 1 C0 0.67 0 0.34 0 0 Z " fill="#DDDDDE" transform="translate(405,157)"/>
<path d="M0 0 C2.31 0.33 4.62 0.66 7 1 C7 1.66 7 2.32 7 3 C8.32 3.66 9.64 4.32 11 5 C6.62886504 4.49172849 3.61004338 3.54826592 0 1 C0 0.67 0 0.34 0 0 Z " fill="#DEDEDF" transform="translate(412,332)"/>
<path d="M0 0 C0.66 0 1.32 0 2 0 C0.68775452 3.93673644 -0.91910327 6.22719294 -4 9 C-2.80100302 5.9168649 -1.52299523 2.93720508 0 0 Z " fill="#E9E9EA" transform="translate(524,311)"/>
<path d="M0 0 C0 0.99 0 1.98 0 3 C-0.99 3.66 -1.98 4.32 -3 5 C-3.99 4.67 -4.98 4.34 -6 4 C-7.32 3.67 -8.64 3.34 -10 3 C-5.05 1.515 -5.05 1.515 0 0 Z " fill="#D3CBD5" transform="translate(492,266)"/>
<path d="M0 0 C-1.39332574 3.36720387 -2.9789286 4.9859524 -6 7 C-6.66 6.67 -7.32 6.34 -8 6 C-7.0479279 4.99403703 -6.08812654 3.99538437 -5.125 3 C-4.59132813 2.443125 -4.05765625 1.88625 -3.5078125 1.3125 C-2 0 -2 0 0 0 Z " fill="#F12E9F" transform="translate(268,12)"/>
<path d="M0 0 C1.2077558 3.62326739 0.54311128 4.64146369 -1 8 C-1.99 8 -2.98 8 -4 8 C-3.50168276 4.31245243 -2.89932357 2.39509338 0 0 Z " fill="#DFDDE1" transform="translate(519,203)"/>
<path d="M0 0 C0.33 0 0.66 0 1 0 C1 2.31 1 4.62 1 7 C0.01 7.33 -0.98 7.66 -2 8 C-1.125 2.25 -1.125 2.25 0 0 Z " fill="#DACCD8" transform="translate(263,181)"/>
<path d="M0 0 C2.64 0.33 5.28 0.66 8 1 C8 1.33 8 1.66 8 2 C4.37 2.33 0.74 2.66 -3 3 C-2.01 2.67 -1.02 2.34 0 2 C0 1.34 0 0.68 0 0 Z " fill="#8A3E97" transform="translate(328,128)"/>
<path d="M0 0 C1.65 1.65 3.3 3.3 5 5 C4.01 5.495 4.01 5.495 3 6 C2.67 6.66 2.34 7.32 2 8 C1.34 5.36 0.68 2.72 0 0 Z " fill="#7B5DA5" transform="translate(503,109)"/>
</svg>
